<svg width="70" height="67" fill="none" xmlns="http://www.w3.org/2000/svg"><path d="M62.123 28.21L50.87 39.452 39.938 28.53l8.47-8.462a1.663 1.663 0 012.35 0l.417.417a1.07 1.07 0 010 1.513 1.07 1.07 0 000 1.513l.367.366c.62.62 1.627.62 2.247 0l3.651-3.647a1.59 1.59 0 012.248 0c.62.62.62 1.625 0 2.245l-1.84 1.839a1.443 1.443 0 000 2.041 1.445 1.445 0 002.043 0l.189-.188a1.446 1.446 0 012.043 0 1.443 1.443 0 010 2.041z" fill="url(#paint0_linear)"/><rect width="7.211" height="2.727" rx="1.363" transform="rotate(-44.974 59.882 -64.305)" fill="url(#paint1_linear)"/><path d="M17.787 61.83L29.04 50.588 18.109 39.666l-8.47 8.462a1.659 1.659 0 000 2.348l.418.417a1.071 1.071 0 001.514 0 1.072 1.072 0 011.515 0l.366.366c.62.62.62 1.626 0 2.246l-3.65 3.647a1.59 1.59 0 002.247 2.246l1.84-1.839a1.446 1.446 0 012.043 0 1.442 1.442 0 010 2.042l-.188.188a1.443 1.443 0 000 2.042 1.447 1.447 0 002.043 0z" fill="url(#paint2_linear)"/><rect width="7.082" height="3.219" rx="1.61" transform="scale(-1.00046 .99954) rotate(45 -75.349 20.422)" fill="url(#paint3_linear)"/><ellipse cx="2.577" cy="39.666" rx="2.577" ry="2.574" fill="url(#paint4_linear)"/><ellipse cx="63.127" cy="42.24" rx="2.577" ry="2.574" fill="url(#paint5_linear)"/><path d="M29.248 10.805l-4.127 1.39-.723-4.097.367-.727c1.334 1.951 3.436 3.425 4.483 3.434z" fill="url(#paint6_linear)"/><path d="M26.436 7.49c.14.799-.39 1.56-1.185 1.7a1.466 1.466 0 01-1.696-1.192c-.14-.799.39-1.56 1.186-1.7a1.465 1.465 0 011.695 1.192z" fill="url(#paint7_linear)"/><path d="M33.329 10.086l4.354-.105-.723-4.098-.593-.558c-.586 2.29-2.058 4.394-3.038 4.76z" fill="url(#paint8_linear)"/><path d="M34.837 6.009c.141.798.9 1.332 1.696 1.192a1.466 1.466 0 001.185-1.7 1.466 1.466 0 00-1.695-1.192 1.466 1.466 0 00-1.186 1.7z" fill="url(#paint9_linear)"/><path d="M19.659 9.763l1.722 1.292c3.517 2.64 8.401-.455 7.57-4.753a.08.08 0 01.064-.095l2.56-.451a.08.08 0 01.093.067c.688 4.323 6.337 5.56 8.739 1.877l1.176-1.803 1.21.78-1.571 8.148-18.509 3.263-3.924-7.178.87-1.147z" fill="url(#paint10_linear)"/><path d="M29.625 12.478l2.237 1.925 1.444-2.574-2.223-1.845-1.458 2.494z" fill="url(#paint11_diamond)"/><ellipse cx="30.2" cy="4.507" rx="2.275" ry="2.284" transform="rotate(-10 30.2 4.507)" fill="url(#paint12_linear)"/><ellipse cx="19.432" cy="9.886" rx="1.462" ry="1.469" transform="rotate(-10 19.432 9.886)" fill="url(#paint13_linear)"/><ellipse cx="42.156" cy="5.878" rx="1.462" ry="1.469" transform="rotate(-10 42.156 5.878)" fill="url(#paint14_linear)"/><path d="M40.614 14.756l-.001.003a.029.029 0 01.002-.003zm-.367.191l.117.029-.1.066c-.377.24-.974.515-1.768.802-1.58.572-3.823 1.153-6.354 1.599-2.53.446-4.838.668-6.517.67-.845.002-1.5-.052-1.936-.148a3.053 3.053 0 01-.117-.029l.1-.066c.377-.24.974-.515 1.768-.802 1.58-.572 3.823-1.153 6.354-1.599 2.53-.446 4.838-.668 6.517-.67.845-.002 1.5.052 1.935.148zM23.26 17.816l.003.002-.003-.003zm.06.34l.002-.002-.002.002zm17.35-3.062a.015.015 0 01.004.003l-.003-.003z" fill="#555" stroke="url(#paint15_linear)" stroke-width="1.278"/><defs><linearGradient id="paint0_linear" x1="45.404" y1="33.992" x2="64.018" y2="25.254" gradientUnits="userSpaceOnUse"><stop stop-color="#CACACA" stop-opacity="0"/><stop offset="1" stop-color="#CACACA"/></linearGradient><linearGradient id="paint1_linear" x1="7.211" y1="1.363" x2="2.099" y2="5.171" gradientUnits="userSpaceOnUse"><stop stop-color="#CACACA" stop-opacity="0"/><stop offset="1" stop-color="#CACACA"/></linearGradient><linearGradient id="paint2_linear" x1="23.575" y1="45.126" x2="14.855" y2="63.736" gradientUnits="userSpaceOnUse"><stop stop-color="#CACACA" stop-opacity="0"/><stop offset="1" stop-color="#CACACA"/></linearGradient><linearGradient id="paint3_linear" x1="7.082" y1="1.61" x2="1.442" y2="5.105" gradientUnits="userSpaceOnUse"><stop stop-color="#CACACA" stop-opacity="0"/><stop offset="1" stop-color="#CACACA"/></linearGradient><linearGradient id="paint4_linear" x1="5.153" y1="39.666" x2="-.109" y2="41.149" gradientUnits="userSpaceOnUse"><stop stop-color="#CACACA" stop-opacity="0"/><stop offset="1" stop-color="#CACACA"/></linearGradient><linearGradient id="paint5_linear" x1="65.704" y1="42.24" x2="60.442" y2="43.724" gradientUnits="userSpaceOnUse"><stop stop-color="#CACACA" stop-opacity="0"/><stop offset="1" stop-color="#CACACA"/></linearGradient><linearGradient id="paint6_linear" x1="29.633" y1="5.676" x2="31.393" y2="11.091" gradientUnits="userSpaceOnUse"><stop stop-color="#CBCBCB"/><stop offset="1" stop-color="#959595"/></linearGradient><linearGradient id="paint7_linear" x1="29.633" y1="5.676" x2="31.393" y2="11.091" gradientUnits="userSpaceOnUse"><stop stop-color="#CBCBCB"/><stop offset="1" stop-color="#959595"/></linearGradient><linearGradient id="paint8_linear" x1="29.633" y1="5.676" x2="31.393" y2="11.091" gradientUnits="userSpaceOnUse"><stop stop-color="#CBCBCB"/><stop offset="1" stop-color="#959595"/></linearGradient><linearGradient id="paint9_linear" x1="29.633" y1="5.676" x2="31.393" y2="11.091" gradientUnits="userSpaceOnUse"><stop stop-color="#CBCBCB"/><stop offset="1" stop-color="#959595"/></linearGradient><linearGradient id="paint10_linear" x1="29.977" y1="12.225" x2="44.144" y2="14.275" gradientUnits="userSpaceOnUse"><stop stop-color="#CACACA"/><stop offset="1" stop-color="#858585"/></linearGradient><linearGradient id="paint12_linear" x1="29.939" y1="4.847" x2="32.696" y2="5.241" gradientUnits="userSpaceOnUse"><stop stop-color="#CACACA"/><stop offset="1" stop-color="#858585"/></linearGradient><linearGradient id="paint13_linear" x1="19.264" y1="10.104" x2="21.037" y2="10.357" gradientUnits="userSpaceOnUse"><stop stop-color="#CACACA"/><stop offset="1" stop-color="#858585"/></linearGradient><linearGradient id="paint14_linear" x1="41.989" y1="6.097" x2="43.761" y2="6.35" gradientUnits="userSpaceOnUse"><stop stop-color="#CACACA"/><stop offset="1" stop-color="#858585"/></linearGradient><linearGradient id="paint15_linear" x1="31.197" y1="13.259" x2="34.964" y2="21.352" gradientUnits="userSpaceOnUse"><stop offset="0" stop-color="#9F9F9F"/><stop offset="1" stop-color="#5F5F5F"/></linearGradient><radialGradient id="paint11_diamond" cx="0" cy="0" r="1" gradientUnits="userSpaceOnUse" gradientTransform="matrix(.99379 5.16814 -4.30467 .82775 31.473 12.194)"><stop stop-color="#BEBDFF"/><stop offset=".226" stop-color="#6048F5"/><stop offset="1" stop-color="#15185B"/></radialGradient></defs></svg>