<svg width="70" height="68" fill="none" xmlns="http://www.w3.org/2000/svg"><path d="M62.123 28.724l-5.788 5.783a7.735 7.735 0 01-10.931 0l-.644-.643a6.81 6.81 0 010-9.636l3.648-3.644a1.663 1.663 0 012.35 0l.417.417a1.07 1.07 0 010 1.513 1.07 1.07 0 000 1.513l.367.366c.62.62 1.627.62 2.247 0l3.651-3.647a1.59 1.59 0 012.248 0c.62.62.62 1.625 0 2.245l-1.84 1.839a1.443 1.443 0 000 2.041 1.445 1.445 0 002.043 0l.189-.188a1.446 1.446 0 012.043 0 1.443 1.443 0 010 2.041z" fill="url(#paint0_linear)"/><rect width="7.211" height="2.727" rx="1.363" transform="rotate(-44.974 60.504 -64.048)" fill="url(#paint1_linear)"/><path d="M17.787 62.346l5.788-5.783a7.718 7.718 0 000-10.922L22.932 45a6.825 6.825 0 00-9.645 0l-3.648 3.644a1.659 1.659 0 000 2.347l.418.418a1.071 1.071 0 001.514 0 1.072 1.072 0 011.515 0l.366.366c.62.62.62 1.625 0 2.245l-3.65 3.648a1.59 1.59 0 002.247 2.246l1.84-1.839a1.446 1.446 0 012.043 0 1.442 1.442 0 010 2.042l-.188.188a1.443 1.443 0 000 2.042 1.447 1.447 0 002.043 0z" fill="url(#paint2_linear)"/><rect width="7.082" height="3.219" rx="1.61" transform="scale(-1.00046 .99954) rotate(45 -75.97 20.68)" fill="url(#paint3_linear)"/><ellipse cx="2.577" cy="40.181" rx="2.577" ry="2.574" fill="url(#paint4_linear)"/><ellipse cx="63.127" cy="42.755" rx="2.577" ry="2.574" fill="url(#paint5_linear)"/><path d="M29.247 11.32l-4.127 1.39-.723-4.097.367-.727c1.334 1.951 3.436 3.425 4.483 3.434z" fill="url(#paint6_linear)"/><path d="M26.435 8.005c.14.799-.39 1.56-1.185 1.7a1.465 1.465 0 01-1.696-1.192c-.14-.799.39-1.56 1.186-1.7a1.465 1.465 0 011.695 1.192z" fill="url(#paint7_linear)"/><path d="M33.328 10.6l4.354-.104-.723-4.098-.593-.558c-.586 2.29-2.058 4.394-3.038 4.76z" fill="url(#paint8_linear)"/><path d="M34.837 6.524c.14.798.9 1.332 1.695 1.192a1.465 1.465 0 001.185-1.7 1.465 1.465 0 00-1.695-1.192 1.465 1.465 0 00-1.185 1.7z" fill="url(#paint9_linear)"/><path d="M19.658 10.277l1.722 1.293c3.517 2.64 8.402-.456 7.57-4.753a.08.08 0 01.064-.095l2.56-.452a.08.08 0 01.093.068c.688 4.322 6.337 5.56 8.74 1.877l1.175-1.804 1.21.78-1.57 8.148-18.51 3.264-3.924-7.178.87-1.148z" fill="url(#paint10_linear)"/><path d="M29.625 12.993l2.237 1.925 1.444-2.574-2.223-1.845-1.458 2.494z" fill="url(#paint11_diamond)"/><ellipse cx="30.199" cy="5.022" rx="2.275" ry="2.284" transform="rotate(-10 30.199 5.022)" fill="url(#paint12_linear)"/><ellipse cx="19.432" cy="10.4" rx="1.462" ry="1.469" transform="rotate(-10 19.432 10.4)" fill="url(#paint13_linear)"/><ellipse cx="42.156" cy="6.393" rx="1.462" ry="1.469" transform="rotate(-10 42.156 6.393)" fill="url(#paint14_linear)"/><ellipse cx="31.966" cy="16.971" rx="9.397" ry="1.641" transform="rotate(-10 31.966 16.971)" fill="url(#paint15_linear)" stroke="url(#paint16_linear)"/><defs><linearGradient id="paint0_linear" x1="54.037" y1="27.509" x2="47.199" y2="37.44" gradientUnits="userSpaceOnUse"><stop stop-color="#FFE5C6"/><stop offset="1" stop-color="#FFC783" stop-opacity="0"/></linearGradient><linearGradient id="paint1_linear" x1="3.192" y1="1.567" x2="7.091" y2="3.045" gradientUnits="userSpaceOnUse"><stop stop-color="#FFE5C6"/><stop offset="1" stop-color="#FFC783" stop-opacity="0"/></linearGradient><linearGradient id="paint2_linear" x1="16.57" y1="54.267" x2="26.499" y2="47.418" gradientUnits="userSpaceOnUse"><stop stop-color="#FFE5C6"/><stop offset="1" stop-color="#FFC783" stop-opacity="0"/></linearGradient><linearGradient id="paint3_linear" x1="3.135" y1="1.85" x2="7.118" y2="3.106" gradientUnits="userSpaceOnUse"><stop stop-color="#FFE5C6"/><stop offset="1" stop-color="#FFC783" stop-opacity="0"/></linearGradient><linearGradient id="paint4_linear" x1="5.153" y1="40.181" x2="-.109" y2="41.664" gradientUnits="userSpaceOnUse"><stop stop-color="#FFC783" stop-opacity="0"/><stop offset="1" stop-color="#FFE5C6"/></linearGradient><linearGradient id="paint5_linear" x1="62.832" y1="43.139" x2="65.954" y2="43.587" gradientUnits="userSpaceOnUse"><stop stop-color="#FFE5C6"/><stop offset="1" stop-color="#FFC783" stop-opacity="0"/></linearGradient><linearGradient id="paint6_linear" x1="31.608" y1="6.67" x2="32.914" y2="15.189" gradientUnits="userSpaceOnUse"><stop stop-color="#FFD19A"/><stop offset="1" stop-color="#FCB865"/></linearGradient><linearGradient id="paint7_linear" x1="31.608" y1="6.67" x2="32.914" y2="15.189" gradientUnits="userSpaceOnUse"><stop stop-color="#FFD19A"/><stop offset="1" stop-color="#FCB865"/></linearGradient><linearGradient id="paint8_linear" x1="31.608" y1="6.67" x2="32.914" y2="15.189" gradientUnits="userSpaceOnUse"><stop stop-color="#FFD19A"/><stop offset="1" stop-color="#FCB865"/></linearGradient><linearGradient id="paint9_linear" x1="31.608" y1="6.67" x2="32.914" y2="15.189" gradientUnits="userSpaceOnUse"><stop stop-color="#FFD19A"/><stop offset="1" stop-color="#FCB865"/></linearGradient><linearGradient id="paint10_linear" x1="29.976" y1="12.739" x2="44.143" y2="14.79" gradientUnits="userSpaceOnUse"><stop stop-color="#FFE5C6"/><stop offset="1" stop-color="#FFC783"/></linearGradient><linearGradient id="paint12_linear" x1="29.938" y1="5.362" x2="32.695" y2="5.756" gradientUnits="userSpaceOnUse"><stop stop-color="#FFE5C6"/><stop offset="1" stop-color="#FFC783"/></linearGradient><linearGradient id="paint13_linear" x1="19.264" y1="10.619" x2="21.037" y2="10.872" gradientUnits="userSpaceOnUse"><stop stop-color="#FFE5C6"/><stop offset="1" stop-color="#FFC783"/></linearGradient><linearGradient id="paint14_linear" x1="41.988" y1="6.612" x2="43.761" y2="6.865" gradientUnits="userSpaceOnUse"><stop stop-color="#FFE5C6"/><stop offset="1" stop-color="#FFC783"/></linearGradient><linearGradient id="paint15_linear" x1="32.785" y1="14.405" x2="32.851" y2="17.13" gradientUnits="userSpaceOnUse"><stop stop-color="#E2BC8F"/><stop offset="1" stop-color="#E5BF92"/></linearGradient><linearGradient id="paint16_linear" x1="31.966" y1="15.33" x2="31.966" y2="18.612" gradientUnits="userSpaceOnUse"><stop stop-color="#F9E3C8"/><stop offset="1" stop-color="#E9C69D"/></linearGradient><radialGradient id="paint11_diamond" cx="0" cy="0" r="1" gradientUnits="userSpaceOnUse" gradientTransform="matrix(.9938 5.16819 -4.30473 .82776 31.472 12.709)"><stop stop-color="#fff"/><stop offset=".226" stop-color="#60F548"/><stop offset="1" stop-color="#175B15"/></radialGradient></defs></svg>