<svg width="24" height="24" viewBox="0 0 24 24" fill="none" xmlns="http://www.w3.org/2000/svg">
<path d="M0 12C0 5.37258 5.37258 0 12 0V0C18.6274 0 24 5.37258 24 12V12C24 18.6274 18.6274 24 12 24V24C5.37258 24 0 18.6274 0 12V12Z" fill="white"/>
<path d="M10.4395 10.0923C10.4976 10.1515 10.6207 10.2943 10.6207 10.6812V10.8219C10.6207 11.793 9.84873 12.5803 8.89655 12.5803C7.94437 12.5803 7.17241 11.793 7.17241 10.8219C7.17241 10.758 7.17228 10.6467 7.217 10.5268C7.44855 10.2186 7.58621 9.83331 7.58621 9.41514C7.58621 8.40515 6.78341 7.58639 5.7931 7.58639C4.8028 7.58639 4 8.40515 4 9.41514C4 10.1938 4.47724 10.8588 5.14965 11.1226C5.19612 11.1474 5.24582 11.1781 5.27586 11.2087C5.30859 11.2421 5.33351 11.2911 5.35062 11.3336C5.36975 11.3807 5.37931 11.4197 5.37931 11.4197L6.29755 15.0537C6.65598 16.4778 7.86086 17.5132 9.29768 17.632C9.29768 17.632 10.4483 17.75 12 17.75C13.5517 17.75 14.7023 17.632 14.7023 17.632C16.1391 17.5132 17.344 16.4778 17.7025 15.0537L18.6207 11.4197C18.6207 11.4197 18.6303 11.3807 18.6494 11.3336C18.6665 11.2911 18.6914 11.2421 18.7241 11.2087C18.7542 11.1781 18.8039 11.1474 18.8504 11.1226C19.5228 10.8588 20 10.1938 20 9.41514C20 8.40515 19.1972 7.58639 18.2069 7.58639C17.2166 7.58639 16.4138 8.40515 16.4138 9.41514C16.4138 9.83331 16.5515 10.2186 16.783 10.5268C16.8277 10.6467 16.8276 10.758 16.8276 10.8219C16.8276 11.793 16.0556 12.5803 15.1034 12.5803C14.1513 12.5803 13.3793 11.793 13.3793 10.8219V10.6812C13.3793 10.2943 13.5024 10.1515 13.5605 10.0923C13.9744 9.67024 14.2069 9.09766 14.2069 8.50076C14.2069 7.90387 13.9744 7.33128 13.5605 6.90927C13.1467 6.48711 12.5853 6.25 12 6.25C11.4147 6.25 10.8533 6.48711 10.4395 6.90927C10.0256 7.33128 9.7931 7.90387 9.7931 8.50076C9.7931 9.09766 10.0256 9.67024 10.4395 10.0923Z" fill="black"/>
<path d="M10.4395 10.0923C10.4976 10.1515 10.6207 10.2943 10.6207 10.6812V10.8219C10.6207 11.793 9.84873 12.5803 8.89655 12.5803C7.94437 12.5803 7.17241 11.793 7.17241 10.8219C7.17241 10.758 7.17228 10.6467 7.217 10.5268C7.44855 10.2186 7.58621 9.83331 7.58621 9.41514C7.58621 8.40515 6.78341 7.58639 5.7931 7.58639C4.8028 7.58639 4 8.40515 4 9.41514C4 10.1938 4.47724 10.8588 5.14965 11.1226C5.19612 11.1474 5.24582 11.1781 5.27586 11.2087C5.30859 11.2421 5.33351 11.2911 5.35062 11.3336C5.36975 11.3807 5.37931 11.4197 5.37931 11.4197L6.29755 15.0537C6.65598 16.4778 7.86086 17.5132 9.29768 17.632C9.29768 17.632 10.4483 17.75 12 17.75C13.5517 17.75 14.7023 17.632 14.7023 17.632C16.1391 17.5132 17.344 16.4778 17.7025 15.0537L18.6207 11.4197C18.6207 11.4197 18.6303 11.3807 18.6494 11.3336C18.6665 11.2911 18.6914 11.2421 18.7241 11.2087C18.7542 11.1781 18.8039 11.1474 18.8504 11.1226C19.5228 10.8588 20 10.1938 20 9.41514C20 8.40515 19.1972 7.58639 18.2069 7.58639C17.2166 7.58639 16.4138 8.40515 16.4138 9.41514C16.4138 9.83331 16.5515 10.2186 16.783 10.5268C16.8277 10.6467 16.8276 10.758 16.8276 10.8219C16.8276 11.793 16.0556 12.5803 15.1034 12.5803C14.1513 12.5803 13.3793 11.793 13.3793 10.8219V10.6812C13.3793 10.2943 13.5024 10.1515 13.5605 10.0923C13.9744 9.67024 14.2069 9.09766 14.2069 8.50076C14.2069 7.90387 13.9744 7.33128 13.5605 6.90927C13.1467 6.48711 12.5853 6.25 12 6.25C11.4147 6.25 10.8533 6.48711 10.4395 6.90927C10.0256 7.33128 9.7931 7.90387 9.7931 8.50076C9.7931 9.09766 10.0256 9.67024 10.4395 10.0923Z" fill="url(#paint0_linear_1123_366)"/>
<defs>
<linearGradient id="paint0_linear_1123_366" x1="4" y1="17.75" x2="21.5772" y2="14.311" gradientUnits="userSpaceOnUse">
<stop stop-color="#FF4A53"/>
<stop offset="1" stop-color="#FF894E"/>
</linearGradient>
</defs>
</svg>
