<svg width="24" height="24" fill="none" xmlns="http://www.w3.org/2000/svg"><path d="M19.45 13.449v.036l.034.011c.72.245 1.343.698 1.785 1.297.44.6.679 1.315.681 2.048v2.406c0 .305-.126.598-.35.815a1.23 1.23 0 01-.85.338h-3.963l-.01.037a4.757 4.757 0 01-1.77 2.534A5.078 5.078 0 0112 23.95a5.079 5.079 0 01-3.007-.98 4.757 4.757 0 01-1.77-2.534l-.01-.036H3.25a1.23 1.23 0 01-.85-.338 1.13 1.13 0 01-.35-.815v-2.406a3.47 3.47 0 01.681-2.048 3.689 3.689 0 011.785-1.297l.034-.011V9.624a7.007 7.007 0 011.762-4.622 7.523 7.523 0 014.446-2.438l.042-.007V1.203c0-.305.126-.598.35-.815A1.23 1.23 0 0112 .05c.319 0 .624.122.85.338.224.217.35.51.35.815v1.354l.042.007a7.523 7.523 0 014.446 2.438 7.007 7.007 0 011.762 4.622v3.825zM17 13.282h.05V9.624c0-1.29-.533-2.527-1.48-3.439A5.151 5.151 0 0012 4.762a5.151 5.151 0 00-3.57 1.423 4.772 4.772 0 00-1.48 3.439v3.658H17zM9.85 20.4h-.088l.045.076c.223.371.543.68.927.895.385.215.821.33 1.266.332h0a2.624 2.624 0 001.266-.332c.384-.215.704-.524.927-.895l.045-.076H9.85zm9.65-2.306h.05v-1.253a1.23 1.23 0 00-.381-.886 1.326 1.326 0 00-.919-.367H5.75c-.344 0-.675.132-.919.367a1.23 1.23 0 00-.381.886v1.253H19.5z" fill="#fff" stroke="#FF784F" stroke-width=".1"/></svg>