<svg width="156" height="151" fill="none" xmlns="http://www.w3.org/2000/svg"><g filter="url(#filter0_d)"><path d="M56.563 98.721l15.56-25.608-4.141 45.912c-7.38.001-13.363-5.982-13.362-13.363 0-2.542.71-4.918 1.943-6.941z" fill="#03A400"/><path d="M61.271 105.659c0-2.542.44-4.917 1.204-6.94l9.647-25.608 11.755-.014 15.57 25.621a13.309 13.309 0 011.943 6.941c.001 7.381-5.982 13.364-13.362 13.363a13.347 13.347 0 01-10.031-4.53c-2.45 2.776-6.023 4.53-10.016 4.53-3.706.001-6.71-5.982-6.71-13.363z" fill="#C1FFBF"/><path d="M39.329 55.05l29.162 6.885-44.944 10.25c-2.282-7.02 1.56-14.558 8.58-16.838a13.304 13.304 0 017.202-.297z" fill="#03A400"/><path d="M34.183 61.676c2.417-.785 4.813-1.1 6.973-1l27.335 1.261 3.646 11.176-19.556 22.725a13.306 13.306 0 01-6 3.993c-7.02 2.282-14.56-1.559-16.839-8.578a13.348 13.348 0 011.21-10.94 13.315 13.315 0 01-7.405-8.126c-1.146-3.525 3.615-8.23 10.636-10.511z" fill="#C1FFBF"/><path d="M75.534 25.168l2.464 29.862L54.36 15.453c5.97-4.339 14.327-3.015 18.665 2.957a13.307 13.307 0 012.508 6.758z" fill="#03A400"/><path d="M67.645 22.318c1.494 2.056 2.534 4.237 3.105 6.323l7.248 26.387-9.502 6.92L40.84 50.373a13.304 13.304 0 01-5.652-4.473c-4.34-5.971-3.016-14.328 2.956-18.665a13.348 13.348 0 0110.778-2.23 13.316 13.316 0 015.44-9.553c2.998-2.18 8.945.895 13.283 6.867z" fill="#C1FFBF"/><path d="M115.144 50.364l-27.64 11.571 30.337-34.71c5.971 4.338 7.294 12.695 2.955 18.666a13.309 13.309 0 01-5.652 4.473z" fill="#03A400"/><path d="M115.414 41.982c-1.494 2.056-3.247 3.719-5.054 4.907L87.504 61.936l-9.518-6.898 2.464-29.88a13.304 13.304 0 012.507-6.757c4.338-5.973 12.695-7.297 18.665-2.957a13.35 13.35 0 015.453 9.561 13.313 13.313 0 0110.765 2.222c3 2.177 1.913 8.784-2.426 14.755z" fill="#C1FFBF"/><path d="M103.419 95.824l-19.546-22.71 42.385 18.125c-2.279 7.02-9.818 10.86-16.838 8.578a13.314 13.314 0 01-6.001-3.993z" fill="#03A400"/><path d="M111.475 93.489c-2.417-.786-4.54-1.939-6.229-3.29L83.873 73.11l3.62-11.184 29.178-6.89a13.308 13.308 0 017.202.297c7.02 2.28 10.862 9.818 8.58 16.837a13.352 13.352 0 01-7.409 8.14 13.315 13.315 0 011.214 10.925c-1.144 3.526-7.763 4.534-14.783 2.253z" fill="#C1FFBF"/><path d="M78.002 55.027v19.995c5.51 0 9.978-4.476 9.978-9.997 0-5.522-4.467-9.998-9.978-9.998z" fill="#FFE1DE"/><path d="M81.329 65.025c0-5.522-1.49-9.998-3.326-9.998-5.51 0-9.978 4.476-9.978 9.998 0 5.521 4.467 9.997 9.978 9.997 1.837 0 3.326-4.476 3.326-9.997z" fill="#FFFEF2"/></g><path d="M119 116h20l-8 15 8 15h-20v-30z" fill="#FF7223"/><path d="M119 146l6-6v-30l-6 6v30z" fill="#F99549"/><path d="M37 116H17l8 15-8 15h20v-30z" fill="#FF7223"/><path d="M37 146l-6-6v-30l6 6v30z" fill="#F99549"/><path fill="#FFC525" d="M31 111h94v31H31z"/><g filter="url(#filter1_d)"><path d="M57.247 123.686l2.178-.918c-.09-.252-.252-.558-.414-.864h1.728a4.657 4.657 0 01-.324.288c.342.198.864.504 1.314.828h-1.656v.666h-2.826zm12.492 5.022v-2.196h-6.948v-.702h5.292v-2.124h-5.292v-.252c.414-.432.828-.954 1.224-1.53h.396c.432.612.864 1.314 1.044 1.782l2.232-.918a6.893 6.893 0 00-.522-.864h2.52v-2.124h-4.5c.108-.234.216-.486.306-.72l-2.502-.63a9.016 9.016 0 01-1.71 2.916v-1.566h-3.51c.108-.216.216-.45.324-.666l-2.502-.684c-.63 1.494-1.764 3.042-2.97 3.978.612.324 1.674 1.026 2.178 1.458a14.4 14.4 0 001.602-1.872c.342.594.666 1.242.81 1.692h-2.178v2.124h5.04v.702h-6.876v2.196h10.368v.774h-9.648v2.196h3.204l-.918.702c.954.774 2.07 1.89 2.538 2.682l2.016-1.62c-.36-.54-1.026-1.188-1.71-1.764h4.518v1.368c0 .216-.09.27-.378.27-.288 0-1.368 0-2.106-.036.36.648.792 1.692.936 2.43 1.278 0 2.304-.036 3.15-.396.864-.378 1.116-1.008 1.116-2.196v-1.44h2.88v-2.196h-2.88v-.774h3.456zm5.49-1.026a30.344 30.344 0 002.772-4.212l-2.07-1.332a21.05 21.05 0 01-.99 1.89l-1.152.072a24.095 24.095 0 002.574-4.536l-2.376-1.134c-.612 2.088-1.818 4.284-2.214 4.842-.396.576-.702.936-1.116 1.044.288.666.684 1.854.81 2.34.288-.144.738-.27 2.088-.414-.54.774-1.008 1.368-1.26 1.638-.594.684-.99 1.062-1.512 1.188.288.63.666 1.764.792 2.232.522-.36 1.35-.684 5.886-1.962-.072-.54-.126-1.53-.09-2.196l-2.142.54zm4.284 6.012c.54-1.116.972-2.376 1.314-3.762.36.648.756 1.242 1.188 1.818a9.656 9.656 0 01-2.502 1.944zm3.582-11.574c-.36 1.548-.774 3.096-1.152 4.266h2.916c-.324 1.224-.774 2.34-1.35 3.312a14.874 14.874 0 01-1.98-3.69c.144-1.242.27-2.538.342-3.888h1.224zm3.06 1.944l-.45.09h-.576c.378-1.422.792-3.024 1.116-4.464h-8.532v2.43h1.602c-.18 3.708-.63 6.966-1.71 9.45l-.342-1.422c-2.232.9-4.608 1.836-6.138 2.322l.63 2.592a379.174 379.174 0 005.256-2.34 8.278 8.278 0 01-1.098 1.476c.63.342 1.872 1.188 2.286 1.584.486-.594.9-1.26 1.26-1.998.558.432 1.422 1.368 1.782 1.926.9-.54 1.728-1.224 2.484-2.052.846.774 1.764 1.44 2.808 1.962.36-.648 1.134-1.62 1.692-2.106a11.636 11.636 0 01-2.97-1.908c1.152-1.872 2.016-4.194 2.502-6.93l-1.602-.612zM93.976 134h8.46v-2.592h-2.412V120.59h-2.358c-.936.594-1.872.954-3.312 1.224v1.98h2.466v7.614h-2.844V134z" fill="#fff"/></g><defs><filter id="filter0_d" x="-6.033" y="-6.241" width="168.067" height="168.067" filterUnits="userSpaceOnUse" color-interpolation-filters="sRGB"><feFlood flood-opacity="0" result="BackgroundImageFix"/><feColorMatrix in="SourceAlpha" values="0 0 0 0 0 0 0 0 0 0 0 0 0 0 0 0 0 0 127 0"/><feOffset dy="9.793"/><feGaussianBlur stdDeviation="11.017"/><feColorMatrix values="0 0 0 0 0 0 0 0 0 0 0 0 0 0 0 0 0 0 0.15 0"/><feBlend in2="BackgroundImageFix" result="effect1_dropShadow"/><feBlend in="SourceGraphic" in2="effect1_dropShadow" result="shape"/></filter><filter id="filter1_d" x="47.621" y="117.43" width="59.815" height="27.352" filterUnits="userSpaceOnUse" color-interpolation-filters="sRGB"><feFlood flood-opacity="0" result="BackgroundImageFix"/><feColorMatrix in="SourceAlpha" values="0 0 0 0 0 0 0 0 0 0 0 0 0 0 0 0 0 0 127 0"/><feOffset dy="4"/><feGaussianBlur stdDeviation="2.5"/><feColorMatrix values="0 0 0 0 0 0 0 0 0 0 0 0 0 0 0 0 0 0 0.25 0"/><feBlend in2="BackgroundImageFix" result="effect1_dropShadow"/><feBlend in="SourceGraphic" in2="effect1_dropShadow" result="shape"/></filter></defs></svg>