<svg width="12" height="10" viewBox="0 0 12 10" fill="none" xmlns="http://www.w3.org/2000/svg">
<g clip-path="url(#clip0)">
<path d="M12 4.10026L9.77436 0.520264L5.88718 0.0202637L2.21538 0.520264L0 4.05026L5.98974 9.94026L12 4.10026Z" fill="#337DFF"/>
<path d="M0 4.05002L0.0102564 4.06002L3.85641 4.43002L2.20513 0.52002L0 4.05002Z" fill="#4D94FF"/>
<path d="M5.94861 1.41977L9.78451 0.509766L8.12297 4.39977L5.94861 1.41977Z" fill="#81D1FF"/>
<path d="M5.94867 1.41977L2.20508 0.509766L3.83585 4.42977L5.94867 1.41977Z" fill="#64C6FF"/>
<path d="M12.1123 4.05435L8.23535 4.34435L9.89689 0.454346L12.1123 4.05435Z" fill="#A1DCFF"/>
<path d="M0.0102539 4.05981L6.02051 9.99981L3.8359 4.42981L0.0102539 4.05981Z" fill="#275EFF"/>
<path d="M12 4.11011L6.03076 9.95011L8.11281 4.40011L12 4.11011Z" fill="#ABC9FF"/>
<path d="M2.20508 0.52L5.94867 1.43L9.79482 0.52L5.87687 0L2.20508 0.52Z" fill="#BFE7FF"/>
<path d="M3.83594 4.42992L5.94876 1.41992L8.12312 4.39992L3.83594 4.42992Z" fill="#5C95FF"/>
</g>
<defs>
<clipPath id="clip0">
<rect width="12" height="10" fill="white"/>
</clipPath>
</defs>
</svg>
