<svg width="28" height="18" fill="none" xmlns="http://www.w3.org/2000/svg"><g clip-path="url(#clip0)"><path d="M27.927 4.371l-11.161 11.16a.251.251 0 01-.355 0l-6.337-6.336a.251.251 0 010-.356l1.54-1.54a.252.252 0 01.355 0l4.62 4.62 9.442-9.443a.252.252 0 01.356 0l1.54 1.54a.251.251 0 010 .355z" fill="#CECFDF"/></g><g clip-path="url(#clip1)"><path d="M17.927 4.371l-11.16 11.16a.251.251 0 01-.357 0L.074 9.196a.251.251 0 010-.356l1.54-1.54a.252.252 0 01.355 0l4.62 4.62 9.442-9.443a.252.252 0 01.356 0l1.54 1.54a.251.251 0 010 .355z" fill="#CECFDF"/></g><defs><clipPath id="clip0"><path fill="#fff" transform="translate(10)" d="M0 0h18v18H0z"/></clipPath><clipPath id="clip1"><path fill="#fff" d="M0 0h18v18H0z"/></clipPath></defs></svg>