<svg width="12" height="12" fill="none" xmlns="http://www.w3.org/2000/svg"><path d="M8.49 3.358c-.25-.274-.638-.642-.803.19a1.928 1.928 0 01-.3.677c-.122-.615-.487-1.25-.831-1.68-.13-.16-.586-.797-.674-1.864a.192.192 0 00-.32-.127C4.432 1.58 3.81 2.992 3.788 4.581c0 0-.471-.397-.727-1.135-.069-.199-.335-.237-.45-.061a1.763 1.763 0 00-.062.1C1.677 5.027 1.257 6.9 1.645 8.643c.649 2.917 4.938 3.733 7.21 1.9 2.221-1.795 1.515-5.135-.364-7.185z" fill="#FE717C"/><path d="M2.249 8.827c-.384-1.761.022-3.652.874-5.219a2.906 2.906 0 01-.062-.161c-.069-.199-.335-.237-.45-.061a1.768 1.768 0 00-.062.1c-.872 1.542-1.292 3.415-.904 5.158.296 1.33 1.35 2.224 2.623 2.628-.994-.481-1.772-1.307-2.02-2.445zm2.145-4.275c.047-1.442.569-2.735 1.502-3.728a4.232 4.232 0 01-.014-.141C5.87.523 5.687.442 5.57.548c-1.092.987-1.758 2.385-1.781 4.033l.204.159c.1.078.237.075.333.003.057-.048.066-.122.07-.19z" fill="#FFA0A8"/><path d="M7.805 5.492c-.185-.202-.472-.474-.594.14-.041.21-.139.37-.222.5-.09-.454-.36-.923-.613-1.24-.095-.119-.433-.59-.498-1.378a.142.142 0 00-.236-.093c-.835.758-1.294 1.8-1.31 2.974 0 0-.348-.293-.537-.838-.051-.147-.248-.175-.333-.045-.017.025-.032.05-.046.074-.644 1.139-.954 2.522-.667 3.81.479 2.154 3.647 2.757 5.325 1.402 1.641-1.325 1.12-3.792-.269-5.306z" fill="#FFA3AC"/><path d="M7.179 7.439c-.125-.137-.32-.321-.402.095a.964.964 0 01-.15.338c-.061-.307-.244-.625-.416-.84-.064-.08-.292-.398-.336-.932a.096.096 0 00-.16-.063c-.566.513-.876 1.219-.888 2.013 0 0-.235-.198-.363-.567a.126.126 0 00-.225-.03.88.88 0 00-.03.05c-.437.77-.647 1.707-.453 2.578.324 1.459 2.47 1.867 3.605.95.389-.314.63-.757.679-1.246.074-.741-.212-1.638-.861-2.346z" fill="#FFCDD1"/></svg>