<svg width="198" height="70" viewBox="0 0 198 70" fill="none" xmlns="http://www.w3.org/2000/svg">
<g clip-path="url(#clip0)">
<path d="M75.3369 53.7954L76.1559 54.6154L76.9305 53.8286L76.1227 53.0197C76.7535 52.2108 77.0301 51.28 76.9748 50.2384C76.9084 49.1967 76.51 48.3102 75.7685 47.5678C74.9606 46.7589 73.9868 46.3489 72.8358 46.3489C71.6959 46.3378 70.711 46.7478 69.9031 47.5567C69.0952 48.3656 68.6858 49.3408 68.6858 50.4932C68.6747 51.6346 69.0842 52.6208 69.892 53.4297C70.6335 54.1721 71.5189 54.5821 72.5591 54.6375C73.5884 54.704 74.518 54.427 75.3369 53.7954ZM74.5954 51.4794L73.8097 52.2662L74.5512 53.0086C73.9536 53.4186 73.2896 53.5959 72.5702 53.5294C71.8287 53.474 71.1979 53.1748 70.6778 52.654C70.0912 52.0556 69.7924 51.3354 69.7924 50.4932C69.7924 49.6511 70.0912 48.9308 70.6778 48.3435C71.2754 47.7451 71.9947 47.4459 72.8358 47.4459C73.6769 47.457 74.3962 47.7562 74.9828 48.3435C75.5029 48.8643 75.8017 49.4959 75.8681 50.2384C75.9235 50.9697 75.7464 51.6346 75.3369 52.2219L74.5954 51.4794Z" fill="white"/>
<path d="M86.4212 52.1555L88.3911 54.6487H89.8187L87.7713 52.0668C88.4021 51.9006 88.9223 51.5682 89.3317 51.0474C89.7523 50.5155 89.9626 49.9171 89.9626 49.2412C89.9626 48.4322 89.6748 47.7563 89.1104 47.1912C88.546 46.626 87.8599 46.3379 87.052 46.3379H83.7319V54.6487H84.8386V52.1555H86.4212ZM88.3247 47.9668C88.6788 48.3214 88.8559 48.7425 88.8559 49.2412C88.8559 49.7398 88.6788 50.1609 88.3247 50.5155C87.9816 50.8701 87.55 51.0474 87.052 51.0474H84.8386V47.446H87.052C87.55 47.446 87.9816 47.6233 88.3247 47.9668Z" fill="white"/>
<path d="M98.8391 54.7373C99.7023 54.6819 100.333 54.2829 100.743 53.5405C101.053 52.9532 101.119 52.3548 100.931 51.7454C100.743 51.1248 100.366 50.6594 99.7798 50.3602L98.496 49.64C98.1972 49.4848 97.998 49.2411 97.8984 48.9086C97.7988 48.5873 97.8209 48.2659 97.9869 47.9556C98.2747 47.5678 98.6177 47.3573 99.0162 47.3462C99.4035 47.3351 99.7576 47.4902 100.079 47.8116L100.986 47.1578C100.477 46.4819 99.7908 46.1716 98.9166 46.227C98.0423 46.2935 97.4004 46.6924 97.002 47.4348C96.6921 48.0221 96.6257 48.6205 96.8139 49.23C97.002 49.8505 97.3783 50.3159 97.9648 50.6151L99.2486 51.3354C99.5474 51.4905 99.7466 51.7343 99.8462 52.0556C99.9458 52.3881 99.9236 52.7094 99.7576 53.0197C99.4699 53.4075 99.1268 53.6181 98.7284 53.6292C98.3411 53.6402 97.9869 53.4851 97.666 53.1638L96.7585 53.8175C97.2787 54.4935 97.9648 54.8038 98.8391 54.7373Z" fill="white"/>
<path d="M113.162 51.3022C113.727 50.7371 114.014 50.0501 114.014 49.2412C114.014 48.4322 113.727 47.7563 113.162 47.1912C112.598 46.626 111.912 46.3379 111.104 46.3379H107.784V54.6487H108.89V52.1555H111.104C111.912 52.1555 112.598 51.8674 113.162 51.3022ZM112.376 47.9668C112.731 48.3214 112.908 48.7425 112.908 49.2412C112.908 49.7398 112.731 50.1609 112.376 50.5155C112.033 50.8701 111.602 51.0474 111.104 51.0474H108.89V47.446H111.104C111.602 47.446 112.033 47.6233 112.376 47.9668Z" fill="white"/>
<path d="M120.658 46.3379V54.6487H121.765V46.3379H120.658Z" fill="white"/>
<path d="M129.516 50.4933C129.516 49.6512 129.815 48.9309 130.413 48.3436C130.999 47.7452 131.718 47.446 132.56 47.446C133.401 47.446 134.12 47.7452 134.707 48.3436L135.492 47.5568C134.684 46.7479 133.711 46.3379 132.56 46.3379C131.42 46.3379 130.435 46.7479 129.627 47.5568C128.819 48.3657 128.41 49.3409 128.41 50.4933C128.41 51.6347 128.819 52.6209 129.627 53.4298C130.435 54.2387 131.42 54.6487 132.56 54.6487C133.711 54.6487 134.684 54.2387 135.492 53.4298L134.707 52.643C134.12 53.2414 133.401 53.5406 132.56 53.5406C131.718 53.5406 130.999 53.2414 130.413 52.643C129.815 52.0557 129.516 51.3355 129.516 50.4933Z" fill="white"/>
<path d="M145.92 54.6487V52.1555L148.498 46.3379H147.292L145.366 50.7593L143.463 46.3379H142.256L144.813 52.1555V54.6487H145.92Z" fill="white"/>
<path d="M153.957 53.5074C153.825 53.6403 153.758 53.7955 153.758 53.9839C153.758 54.1722 153.825 54.3274 153.957 54.4493C154.079 54.5822 154.234 54.6487 154.422 54.6487C154.61 54.6487 154.765 54.5822 154.898 54.4493C155.031 54.3274 155.097 54.1722 155.097 53.9839C155.097 53.7955 155.031 53.6293 154.898 53.5074C154.776 53.3744 154.61 53.3079 154.422 53.3079C154.234 53.3079 154.079 53.3744 153.957 53.5074Z" fill="white"/>
<path d="M161.914 50.4933C161.914 49.6512 162.213 48.9309 162.81 48.3436C163.397 47.7452 164.116 47.446 164.957 47.446C165.798 47.446 166.518 47.7452 167.104 48.3436L167.89 47.5568C167.082 46.7479 166.108 46.3379 164.957 46.3379C163.817 46.3379 162.832 46.7479 162.025 47.5568C161.217 48.3657 160.807 49.3409 160.807 50.4933C160.807 51.6347 161.217 52.6209 162.025 53.4298C162.832 54.2387 163.817 54.6487 164.957 54.6487C166.108 54.6487 167.082 54.2387 167.89 53.4298L167.104 52.643C166.518 53.2414 165.798 53.5406 164.957 53.5406C164.116 53.5406 163.397 53.2414 162.81 52.643C162.213 52.0557 161.914 51.3355 161.914 50.4933Z" fill="white"/>
<path d="M175.871 47.5568C175.064 48.3657 174.654 49.352 174.654 50.4933C174.654 51.6347 175.064 52.6209 175.871 53.4298C176.679 54.2387 177.664 54.6487 178.804 54.6487C179.944 54.6487 180.929 54.2387 181.737 53.4298C182.545 52.6209 182.954 51.6347 182.954 50.4933C182.954 49.352 182.545 48.3657 181.737 47.5568C180.929 46.7479 179.944 46.3379 178.804 46.3379C177.664 46.3379 176.679 46.7479 175.871 47.5568ZM176.657 52.643C176.06 52.0557 175.761 51.3355 175.761 50.4933C175.761 49.6512 176.06 48.9309 176.657 48.3325C177.244 47.7452 177.963 47.446 178.804 47.446C179.645 47.446 180.365 47.7452 180.962 48.3325C181.549 48.9309 181.848 49.6512 181.848 50.4933C181.848 51.3355 181.549 52.0557 180.962 52.643C180.365 53.2414 179.645 53.5406 178.804 53.5406C177.963 53.5406 177.244 53.2414 176.657 52.643Z" fill="white"/>
<path d="M190.807 47.9114L193.851 50.9587L196.894 47.9114V54.6487H198.001V46.3379H196.894L193.851 49.3852L190.807 46.3379H189.701V54.6487H190.807V47.9114Z" fill="white"/>
<path d="M72.5965 19.1084C73.1541 19.7837 73.7831 20.6408 74.4834 21.6796L72.4895 22.7509H75.4367V24.913C74.8984 26.1012 74.2759 27.2342 73.5691 28.312V29.1496L74.6391 28.2049C75.3913 28.8801 76.2148 29.6853 77.1096 30.6202L75.1838 32.198C74.5807 31.4123 74.0425 30.7436 73.5691 30.1917V38.3532H70.9235V31.6915C70.3723 32.2824 69.7887 32.8537 69.1727 33.4056C68.9003 32.159 68.6409 31.1007 68.3945 30.2306C70.1194 28.7243 71.4422 27.0881 72.363 25.3221H68.6669V22.7509H71.9642C71.3482 21.7575 70.7938 20.9264 70.301 20.2577L72.5965 19.1084ZM75.0476 35.1782H80.2222V27.2115H76.3315V24.6793H80.2222V19.4006H83.0235V24.6793H87.0309V27.2115H83.0235V35.1782H87.7312V37.7104H75.0476V35.1782Z" fill="white"/>
<path d="M90.54 21.6015H98.3895C98.1301 20.9847 97.8999 20.4523 97.6989 20.0043L100.578 19.1277C100.889 19.7445 101.291 20.5691 101.784 21.6015H109.313V24.0558H90.54V21.6015ZM90.6568 28.5748C92.8096 27.1334 94.6836 25.64 96.2788 24.0947L98.3798 26.0231C96.5252 27.7112 94.5604 29.315 92.4854 30.8343C92.0574 30.224 91.4479 29.4708 90.6568 28.5748ZM103.516 24.1532C105.656 25.6725 107.581 27.0944 109.293 28.419L107.27 30.659C105.48 29.0228 103.632 27.484 101.726 26.0426L103.516 24.1532ZM97.1736 28.0099C98.0231 29.4838 98.9666 30.7239 100.004 31.7303C101.12 30.672 102.024 29.4188 102.718 27.9709L105.014 29.5097C104.197 30.9901 103.26 32.2919 102.203 33.4152C104.09 34.493 106.57 35.2104 109.643 35.5675C108.995 36.6583 108.457 37.5868 108.029 38.353C104.936 37.9309 102.264 36.9278 100.014 35.3435C97.7767 36.8953 95.0662 37.9244 91.8823 38.4309C91.5581 37.7037 91.0329 36.7752 90.3066 35.6455C93.2895 35.2689 95.786 34.5157 97.7962 33.386C96.7262 32.2627 95.7925 31.0096 94.9949 29.6266L97.1736 28.0099Z" fill="white"/>
<path d="M117.491 23.1599L119.213 26.6952C119.725 25.533 120.208 24.3221 120.662 23.0625L121.975 23.6663L123.016 23.1988L124.591 26.6173C125.078 25.4551 125.545 24.2442 125.992 22.9846L128.093 23.8806C127.438 25.8284 126.712 27.6983 125.914 29.4904L127.957 34.0483L125.759 35.1391L124.582 32.2953C123.953 33.5419 123.295 34.7496 122.607 35.9183C122.315 35.691 122.027 35.4735 121.742 35.2657L120.701 35.7819L119.193 32.1979C118.447 33.6068 117.666 34.9184 116.849 36.1325C116.525 35.8274 116.129 35.4832 115.662 35.1002V38.3336H113.056V19.9849H130.739V34.9443C130.739 35.9507 130.547 36.7234 130.165 37.2623C129.782 37.8077 129.244 38.1258 128.55 38.2167C127.863 38.3076 126.576 38.3531 124.689 38.3531C124.507 37.3012 124.306 36.3922 124.086 35.6261C125.006 35.717 125.94 35.7624 126.887 35.7624C127.717 35.7624 128.132 35.3534 128.132 34.5353V22.4197H115.662V24.1143L117.491 23.1599ZM115.662 24.5039V33.3958C116.473 32.1362 117.235 30.7954 117.948 29.3735C117.183 27.6724 116.421 26.0492 115.662 24.5039ZM121.956 26.1888C121.502 27.338 121.028 28.4418 120.535 29.5001L121.887 32.4121C122.393 31.4577 122.886 30.4643 123.366 29.4319L121.956 26.1888Z" fill="white"/>
<path d="M137.049 25.361C137.594 25.3351 137.983 25.3221 138.217 25.3221C138.722 24.4391 139.241 23.4327 139.773 22.3029L142.068 23.3548C140.784 25.5883 139.436 27.8867 138.022 30.2501C138.995 30.1203 140.006 29.9774 141.057 29.8216C140.966 30.6916 140.914 31.4967 140.901 32.2369C138.23 32.5875 136.381 32.8862 135.357 33.1329L134.598 30.9514C135.247 30.2891 136.025 29.1658 136.933 27.5816C136.193 27.6335 135.506 27.6984 134.871 27.7764L134.131 25.5753C135.052 24.4585 136.167 22.3354 137.477 19.2058L139.89 20.1408C138.956 21.9198 138.009 23.6599 137.049 25.361ZM142.185 38.4895V30.6202H152.223V38.4895H149.694V37.5935H144.714V38.4895H142.185ZM134.598 37.3598L134.151 34.6328C135.772 34.464 138.23 34.1263 141.524 33.6199C141.446 34.7107 141.413 35.6067 141.426 36.3079C138.534 36.7105 136.258 37.0611 134.598 37.3598ZM149.694 33.055H144.714V35.1587H149.694V33.055ZM141.621 24.5624C143.138 22.8483 144.383 21.0628 145.356 19.2058L147.982 19.6344C147.684 20.1668 147.379 20.6732 147.068 21.1537H152.651V23.4911C151.912 24.8546 150.894 26.0623 149.597 27.1141C150.777 27.5426 152.087 27.8673 153.526 28.088C153.254 29.0619 153.06 29.906 152.943 30.6202C150.634 30.1138 148.721 29.458 147.204 28.6529C145.596 29.432 143.702 30.1008 141.524 30.6592C141.161 29.6593 140.836 28.8866 140.551 28.3412C142.263 27.9776 143.735 27.5556 144.967 27.0751C144.526 26.6726 144.104 26.2181 143.702 25.7116C143.378 26.0363 143.099 26.3155 142.866 26.5492C142.555 25.9778 142.14 25.3156 141.621 24.5624ZM145.628 23.4327C145.512 23.5885 145.382 23.7573 145.239 23.9391C145.784 24.7053 146.439 25.3675 147.204 25.9259C148.267 25.2247 149.072 24.3936 149.616 23.4327H145.628Z" fill="white"/>
<path d="M159.02 25.1661C159.429 25.1337 159.947 25.098 160.576 25.059C160.972 24.3578 161.374 23.6209 161.782 22.8482L164.097 24.0364C162.593 26.6205 161.238 28.7307 160.032 30.3669C160.576 30.302 161.873 30.1137 163.922 29.802C163.806 30.8279 163.734 31.6265 163.708 32.1979C160.388 32.6004 158.255 32.9381 157.308 33.2108L156.355 30.8733C157.029 30.5227 157.989 29.3313 159.234 27.299C158.119 27.3834 157.302 27.4841 156.783 27.601L156.005 25.322C156.653 24.9324 157.853 22.8547 159.604 19.0889L162.074 20.0433C160.842 22.2119 159.824 23.9195 159.02 25.1661ZM163.3 26.218C164.402 24.4649 165.42 22.1015 166.354 19.1278L169.136 19.829C168.857 20.6471 168.572 21.4328 168.28 22.1859H174.563L174.427 31.3506C174.356 33.8373 174.262 35.3242 174.145 35.8111C174.035 36.2916 173.818 36.7071 173.493 37.0577C173.169 37.4084 172.764 37.6453 172.277 37.7687C171.798 37.8986 170.18 37.9765 167.424 38.0025C167.255 37.0415 167.022 36.113 166.724 35.217C168.221 35.2949 169.334 35.3339 170.06 35.3339C170.579 35.3339 170.945 35.2592 171.159 35.1099C171.379 34.9541 171.525 34.7366 171.597 34.4574C171.674 34.1782 171.746 33.0257 171.811 30.9999C171.882 28.9677 171.931 26.8803 171.957 24.7376H167.2C166.746 25.731 166.276 26.6465 165.79 27.4841C165.18 27.0685 164.35 26.6465 163.3 26.218ZM167.327 26.5686C168.559 28.2048 169.648 29.7501 170.595 31.2045L168.202 32.7043C167.268 31.0681 166.257 29.5098 165.167 28.0295L167.327 26.5686ZM156.083 34.7885C158.196 34.5418 160.972 34.1652 164.409 33.6588C164.331 34.7496 164.298 35.6456 164.311 36.3468L156.53 37.5155L156.083 34.7885Z" fill="white"/>
<path d="M178.734 29.8019H196.592V32.2562H191.748C192.98 33.7496 194.31 35.4312 195.736 37.3011L193.363 38.7425C193.078 38.327 192.779 37.892 192.468 37.4375C190.004 37.5284 186.917 37.6842 183.208 37.905C182.651 37.9439 181.97 38.0413 181.166 38.1971L179.999 35.8402C181.192 34.9832 182.372 33.7885 183.539 32.2562H178.734V29.8019ZM189.784 19.2446L189.239 19.9069C190.912 22.3611 193.609 24.4518 197.331 26.1789C196.644 27.023 196.061 27.7891 195.581 28.4774C194.608 27.958 193.7 27.4126 192.857 26.8412V28.1657H182.43V26.7243C181.587 27.2957 180.679 27.8671 179.707 28.4384C179.331 27.906 178.747 27.1399 177.956 26.14C182.21 23.8935 185.037 21.595 186.438 19.2446H189.784ZM187.644 22.0495C186.723 23.2572 185.426 24.4908 183.753 25.7504H191.379C189.913 24.6077 188.668 23.374 187.644 22.0495ZM189.356 33.2691L191.029 32.2562H186.924C186.25 33.1133 185.394 34.0937 184.356 35.1975C185.86 35.1975 187.968 35.139 190.678 35.0221C190.263 34.4638 189.822 33.8794 189.356 33.2691Z" fill="white"/>
<g filter="url(#filter0_d)">
<path d="M35 55C46.0457 55 55 46.0457 55 35C55 23.9543 46.0457 15 35 15C23.9543 15 15 23.9543 15 35C15 46.0457 23.9543 55 35 55Z" fill="white"/>
</g>
<path d="M27.3502 30.7501L35.0002 23.1001L42.0835 30.1834C44.7437 32.8436 44.7437 37.1566 42.0835 39.8168L37.2669 44.6334C36.015 45.8853 33.9854 45.8853 32.7335 44.6334L27.3502 39.2501C25.003 36.9029 25.003 33.0973 27.3502 30.7501Z" fill="#F64D56"/>
<path d="M30.041 32.5918C28.7109 33.9219 28.711 36.0783 30.041 37.4084L34.9994 42.3668L39.9577 37.4084C41.2878 36.0783 41.2878 33.9219 39.9577 32.5918C38.6276 31.2617 36.4711 31.2617 35.141 32.5918L34.9994 32.7334L34.8577 32.5918C33.5276 31.2617 31.3711 31.2617 30.041 32.5918Z" fill="white"/>
<path d="M27.35 30.75L30.1833 27.9167L27.6333 25.3667L24.8 28.2C21.0445 31.9555 21.0445 38.0445 24.8 41.8L30.1833 47.1833C32.8435 49.8435 37.1565 49.8435 39.8167 47.1833L44.6333 42.3667C48.7018 38.2982 48.7018 31.7018 44.6333 27.6333L42.3667 25.3667L39.8167 27.9167L42.0833 30.1833C44.7435 32.8435 44.7435 37.1565 42.0833 39.8167L37.2667 44.6333C36.0148 45.8852 33.9852 45.8852 32.7333 44.6333L27.35 39.25C25.0028 36.9028 25.0028 33.0972 27.35 30.75Z" fill="url(#paint0_linear)"/>
</g>
<defs>
<filter id="filter0_d" x="0" y="0" width="70" height="70" filterUnits="userSpaceOnUse" color-interpolation-filters="sRGB">
<feFlood flood-opacity="0" result="BackgroundImageFix"/>
<feColorMatrix in="SourceAlpha" type="matrix" values="0 0 0 0 0 0 0 0 0 0 0 0 0 0 0 0 0 0 127 0" result="hardAlpha"/>
<feOffset/>
<feGaussianBlur stdDeviation="7.5"/>
<feColorMatrix type="matrix" values="0 0 0 0 0 0 0 0 0 0 0 0 0 0 0 0 0 0 0.05 0"/>
<feBlend mode="normal" in2="BackgroundImageFix" result="effect1_dropShadow"/>
<feBlend mode="normal" in="SourceGraphic" in2="effect1_dropShadow" result="shape"/>
</filter>
<linearGradient id="paint0_linear" x1="35" y1="18" x2="35" y2="60.2437" gradientUnits="userSpaceOnUse">
<stop stop-color="#F64D56"/>
<stop offset="1" stop-color="#FBB952"/>
</linearGradient>
<clipPath id="clip0">
<rect width="198" height="70" fill="white"/>
</clipPath>
</defs>
</svg>
