<svg width="16" height="16" fill="none" xmlns="http://www.w3.org/2000/svg"><circle cx="8" cy="8" r="8" fill="#29006B"/><path d="M9.256 7.571L11.5 5.33v2.387a.583.583 0 00.584.584.584.584 0 00.584-.584V3.918a.584.584 0 00-.584-.584H8.285a.584.584 0 000 1.169h2.387L8.43 6.745a3.255 3.255 0 00-4.146.375 3.254 3.254 0 000 4.597 3.254 3.254 0 004.597 0 3.255 3.255 0 00.375-4.146zm-4.145 3.32a2.084 2.084 0 010-2.944 2.084 2.084 0 012.944 0 2.084 2.084 0 010 2.944 2.084 2.084 0 01-2.944 0z" fill="#fff"/></svg>