<svg width="30" height="30" viewBox="0 0 30 30" fill="none" xmlns="http://www.w3.org/2000/svg">
<path d="M15 30C23.2843 30 30 23.2843 30 15C30 6.71573 23.2843 0 15 0C6.71573 0 0 6.71573 0 15C0 23.2843 6.71573 30 15 30Z" fill="#2196F3"/>
<path d="M13.5718 13.5713H16.4289V21.4284H13.5718V13.5713Z" fill="white"/>
<path d="M14.9996 11.4286C15.9858 11.4286 16.7853 10.6291 16.7853 9.64289C16.7853 8.65667 15.9858 7.85718 14.9996 7.85718C14.0134 7.85718 13.2139 8.65667 13.2139 9.64289C13.2139 10.6291 14.0134 11.4286 14.9996 11.4286Z" fill="white"/>
</svg>
