<svg width="28" height="28" fill="none" xmlns="http://www.w3.org/2000/svg"><path d="M28 14c0 7.732-6.268 14-14 14S0 21.732 0 14 6.268 0 14 0s14 6.268 14 14z" fill="#FCAB31"/><path d="M14 14.933a.848.848 0 00-.619.274.966.966 0 00-.256.66v2.8c0 .247.092.485.256.66A.848.848 0 0014 19.6a.848.848 0 00.619-.273.966.966 0 00.256-.66v-2.8a.966.966 0 00-.256-.66.848.848 0 00-.619-.274zm4.375-3.733h-7V9.333a2.935 2.935 0 01.44-1.558 2.67 2.67 0 011.177-1.034 2.473 2.473 0 011.517-.162c.51.108.978.374 1.346.766.329.358.564.802.683 1.288a.96.96 0 00.148.329c.069.098.156.18.255.243a.841.841 0 00.664.1.855.855 0 00.308-.158.919.919 0 00.228-.272.976.976 0 00.094-.709 4.836 4.836 0 00-1.146-2.137 4.296 4.296 0 00-2.24-1.273 4.122 4.122 0 00-2.526.267 4.45 4.45 0 00-1.961 1.719 4.89 4.89 0 00-.737 2.59V11.2c-.696 0-1.364.295-1.856.82A2.898 2.898 0 007 14v6.534c0 .742.277 1.454.769 1.98.492.525 1.16.82 1.856.82h8.75c.696 0 1.364-.295 1.856-.82a2.898 2.898 0 00.769-1.98V14c0-.743-.277-1.455-.769-1.98a2.545 2.545 0 00-1.856-.82zm.875 9.334a.966.966 0 01-.256.66.848.848 0 01-.619.273h-8.75a.848.848 0 01-.619-.273.966.966 0 01-.256-.66V14c0-.248.092-.485.256-.66a.848.848 0 01.619-.274h8.75a.85.85 0 01.619.274.966.966 0 01.256.66v6.534z" fill="#fff"/></svg>