<svg width="112" height="121" fill="none" xmlns="http://www.w3.org/2000/svg"><path d="M99.44 46.785l-17.47 17.47L65 47.285l13.15-13.15a2.58 2.58 0 013.647 0l.648.65a1.66 1.66 0 010 2.35 1.664 1.664 0 000 2.352l.57.569a2.467 2.467 0 003.489 0l5.667-5.668a2.467 2.467 0 013.49 3.489l-2.857 2.857a2.243 2.243 0 003.172 3.172l.293-.293a2.243 2.243 0 013.172 3.172z" fill="url(#paint0_linear)"/><rect x="100.755" y="39.483" width="11.2" height="4.235" rx="2.118" transform="rotate(-45 100.755 39.483)" fill="url(#paint1_linear)"/><path d="M30.613 99.027l17.47-17.47-16.97-16.97-13.15 13.148a2.58 2.58 0 000 3.648l.649.649c.65.649 1.702.649 2.351 0 .65-.65 1.702-.65 2.351 0l.57.569a2.467 2.467 0 010 3.489l-5.669 5.668a2.467 2.467 0 003.49 3.489l2.856-2.857a2.243 2.243 0 013.172 3.172l-.293.293a2.243 2.243 0 003.172 3.172z" fill="url(#paint2_linear)"/><rect width="11" height="5" rx="2.5" transform="scale(-1 1) rotate(45 -122.09 29.571)" fill="url(#paint3_linear)"/><circle cx="7" cy="64.587" r="4" fill="url(#paint4_linear)"/><circle cx="101" cy="68.587" r="4" fill="url(#paint5_linear)"/><path d="M44.509 17.534l-6.666 2.252-1.175-6.659.592-1.18c2.159 3.172 5.558 5.57 7.249 5.587z" fill="url(#paint6_linear)"/><path d="M39.96 12.143c.229 1.298-.627 2.534-1.912 2.76-1.285.227-2.512-.642-2.741-1.94-.229-1.297.627-2.533 1.912-2.76 1.285-.226 2.512.642 2.741 1.94z" fill="url(#paint7_linear)"/><path d="M51.101 16.371l7.035-.163-1.174-6.659-.96-.908c-.943 3.72-3.317 7.137-4.9 7.73z" fill="url(#paint8_linear)"/><path d="M53.532 9.75c.229 1.298 1.456 2.166 2.741 1.94 1.285-.227 2.141-1.463 1.912-2.76-.229-1.298-1.456-2.167-2.74-1.94-1.286.226-2.142 1.462-1.913 2.76z" fill="url(#paint9_linear)"/><path d="M29.014 15.824l2.784 2.103c5.686 4.294 13.574-.727 12.223-7.71a.13.13 0 01.103-.154l4.136-.73a.13.13 0 01.15.11c1.119 7.024 10.248 9.045 14.123 3.064L64.43 9.58l1.956 1.27-2.525 13.235-29.898 5.272-6.353-11.67 1.404-1.862z" fill="url(#paint10_linear)"/><path d="M45.122 20.253l3.617 3.131 2.329-4.18-3.595-3-2.351 4.049z" fill="url(#paint11_diamond)"/><ellipse cx="46.037" cy="7.302" rx="3.675" ry="3.712" transform="rotate(-10 46.037 7.302)" fill="url(#paint12_linear)"/><ellipse cx="28.649" cy="16.023" rx="2.362" ry="2.386" transform="rotate(-10 28.649 16.023)" fill="url(#paint13_linear)"/><ellipse cx="65.358" cy="9.549" rx="2.362" ry="2.386" transform="rotate(-10 65.358 9.55)" fill="url(#paint14_linear)"/><path d="M63.232 24.144v0zm-.093.013a.74.74 0 01.064.042.729.729 0 01-.046.062c-.108.132-.31.306-.634.513-.643.41-1.637.868-2.93 1.338-2.578.936-6.226 1.88-10.329 2.604-4.103.724-7.854 1.083-10.596 1.085-1.376.001-2.466-.088-3.211-.254-.376-.084-.625-.179-.772-.266a.76.76 0 01-.064-.042.775.775 0 01.046-.062c.108-.132.31-.306.634-.513.643-.41 1.637-.868 2.931-1.338 2.577-.936 6.225-1.88 10.328-2.604 4.103-.724 7.854-1.083 10.596-1.085 1.376 0 2.467.089 3.212.255.375.083.624.178.77.265zm-28.564 5.04l.002.003a.011.011 0 01-.002-.003zm.017.097l.001-.003v.003zm28.655-5.056a.011.011 0 01.002.003l-.002-.003z" fill="#555" stroke="url(#paint15_linear)" stroke-width="1.278"/><defs><linearGradient id="paint0_linear" x1="73.485" y1="55.77" x2="102.392" y2="42.213" gradientUnits="userSpaceOnUse"><stop stop-color="#CACACA" stop-opacity="0"/><stop offset="1" stop-color="#CACACA"/></linearGradient><linearGradient id="paint1_linear" x1="111.955" y1="41.6" x2="104.015" y2="47.515" gradientUnits="userSpaceOnUse"><stop stop-color="#CACACA" stop-opacity="0"/><stop offset="1" stop-color="#CACACA"/></linearGradient><linearGradient id="paint2_linear" x1="39.598" y1="73.072" x2="26.041" y2="101.978" gradientUnits="userSpaceOnUse"><stop stop-color="#CACACA" stop-opacity="0"/><stop offset="1" stop-color="#CACACA"/></linearGradient><linearGradient id="paint3_linear" x1="11" y1="2.5" x2="2.239" y2="7.929" gradientUnits="userSpaceOnUse"><stop stop-color="#CACACA" stop-opacity="0"/><stop offset="1" stop-color="#CACACA"/></linearGradient><linearGradient id="paint4_linear" x1="11" y1="64.587" x2="2.83" y2="66.888" gradientUnits="userSpaceOnUse"><stop stop-color="#CACACA" stop-opacity="0"/><stop offset="1" stop-color="#CACACA"/></linearGradient><linearGradient id="paint5_linear" x1="105" y1="68.587" x2="96.83" y2="70.888" gradientUnits="userSpaceOnUse"><stop stop-color="#CACACA" stop-opacity="0"/><stop offset="1" stop-color="#CACACA"/></linearGradient><linearGradient id="paint6_linear" x1="45.123" y1="9.201" x2="47.989" y2="17.997" gradientUnits="userSpaceOnUse"><stop stop-color="#CBCBCB"/><stop offset="1" stop-color="#959595"/></linearGradient><linearGradient id="paint7_linear" x1="45.123" y1="9.201" x2="47.989" y2="17.997" gradientUnits="userSpaceOnUse"><stop stop-color="#CBCBCB"/><stop offset="1" stop-color="#959595"/></linearGradient><linearGradient id="paint8_linear" x1="45.123" y1="9.201" x2="47.989" y2="17.997" gradientUnits="userSpaceOnUse"><stop stop-color="#CBCBCB"/><stop offset="1" stop-color="#959595"/></linearGradient><linearGradient id="paint9_linear" x1="45.123" y1="9.201" x2="47.989" y2="17.997" gradientUnits="userSpaceOnUse"><stop stop-color="#CBCBCB"/><stop offset="1" stop-color="#959595"/></linearGradient><linearGradient id="paint10_linear" x1="45.689" y1="19.842" x2="68.593" y2="23.116" gradientUnits="userSpaceOnUse"><stop stop-color="#CACACA"/><stop offset="1" stop-color="#858585"/></linearGradient><linearGradient id="paint12_linear" x1="45.615" y1="7.855" x2="50.07" y2="8.488" gradientUnits="userSpaceOnUse"><stop stop-color="#CACACA"/><stop offset="1" stop-color="#858585"/></linearGradient><linearGradient id="paint13_linear" x1="28.378" y1="16.379" x2="31.242" y2="16.785" gradientUnits="userSpaceOnUse"><stop stop-color="#CACACA"/><stop offset="1" stop-color="#858585"/></linearGradient><linearGradient id="paint14_linear" x1="65.087" y1="9.905" x2="67.951" y2="10.311" gradientUnits="userSpaceOnUse"><stop stop-color="#CACACA"/><stop offset="1" stop-color="#858585"/></linearGradient><linearGradient id="paint15_linear" x1="47.661" y1="21.524" x2="53.799" y2="34.661" gradientUnits="userSpaceOnUse"><stop offset="0" stop-color="#9F9F9F"/><stop offset="1" stop-color="#5F5F5F"/></linearGradient><radialGradient id="paint11_diamond" cx="0" cy="0" r="1" gradientUnits="userSpaceOnUse" gradientTransform="rotate(79.121 12.073 39.013) scale(8.55214 7.0812)"><stop stop-color="#BEBDFF"/><stop offset=".226" stop-color="#6048F5"/><stop offset="1" stop-color="#15185B"/></radialGradient></defs></svg>