<svg width="112" height="121" fill="none" xmlns="http://www.w3.org/2000/svg"><path d="M99.44 46.654l-17.47 17.47L65 47.155l13.15-13.149a2.58 2.58 0 013.647 0l.648.649c.65.65.65 1.702 0 2.351a1.663 1.663 0 000 2.351l.57.57a2.467 2.467 0 003.489 0l5.667-5.669a2.467 2.467 0 013.49 3.49l-2.857 2.856a2.243 2.243 0 003.172 3.172l.293-.293a2.243 2.243 0 013.172 3.172z" fill="url(#paint0_linear)"/><rect x="100.755" y="39.352" width="11.2" height="4.235" rx="2.118" transform="rotate(-45 100.755 39.352)" fill="url(#paint1_linear)"/><path d="M30.613 98.897l17.47-17.47-16.97-16.971-13.15 13.149a2.58 2.58 0 000 3.648l.649.648c.65.65 1.702.65 2.351 0 .65-.65 1.702-.65 2.351 0l.57.57a2.467 2.467 0 010 3.488l-5.669 5.668a2.467 2.467 0 003.49 3.49l2.856-2.857a2.243 2.243 0 113.172 3.172l-.293.293a2.243 2.243 0 003.172 3.172z" fill="url(#paint2_linear)"/><rect width="11" height="5" rx="2.5" transform="scale(-1 1) rotate(45 -121.933 29.506)" fill="url(#paint3_linear)"/><circle cx="7" cy="64.456" r="4" fill="#FFE360"/><circle cx="13" cy="38.456" r="5" stroke="#60FFCF" stroke-width="2"/><circle cx="43" cy="107.456" r="3" stroke="#60FFCF" stroke-width="2"/><circle cx="101" cy="68.456" r="3.5" fill="#FFE360" stroke="#FFE360"/><path d="M93.535 100.063a1 1 0 010-1.414l5.657-5.657a1 1 0 011.415 1.414l-5.657 5.657a1 1 0 01-1.415 0z" fill="#DC93FF"/><path d="M100.607 100.063a1 1 0 01-1.415 0l-5.656-5.657a1 1 0 011.414-1.414l5.657 5.657a1 1 0 010 1.414zM80 19.456a.8.8 0 01.8-.8h6.4a.8.8 0 010 1.6h-6.4a.8.8 0 01-.8-.8z" fill="#DC93FF"/><path d="M84 23.456a.8.8 0 01-.8-.8v-6.4a.8.8 0 011.6 0v6.4a.8.8 0 01-.8.8z" fill="#DC93FF"/><path d="M44.508 17.534l-6.666 2.252-1.174-6.659.591-1.18c2.16 3.172 5.559 5.57 7.25 5.587z" fill="url(#paint4_linear)"/><path d="M39.96 12.143c.228 1.298-.628 2.534-1.913 2.76-1.284.227-2.512-.642-2.74-1.94a2.374 2.374 0 011.912-2.76 2.374 2.374 0 012.74 1.94z" fill="url(#paint5_linear)"/><path d="M51.1 16.371l7.035-.163-1.174-6.659-.96-.908c-.943 3.72-3.317 7.137-4.9 7.73z" fill="url(#paint6_linear)"/><path d="M53.532 9.75a2.374 2.374 0 002.74 1.94 2.375 2.375 0 001.913-2.76c-.23-1.298-1.456-2.167-2.741-1.94-1.285.226-2.141 1.462-1.913 2.76z" fill="url(#paint7_linear)"/><path d="M29.014 15.823l2.784 2.103c5.686 4.295 13.574-.726 12.223-7.71a.13.13 0 01.103-.153l4.136-.73a.13.13 0 01.15.11c1.119 7.024 10.248 9.045 14.123 3.064l1.897-2.928 1.956 1.27-2.525 13.234-29.899 5.272-6.352-11.669 1.404-1.863z" fill="url(#paint8_linear)"/><path d="M45.121 20.253l3.618 3.131 2.328-4.18-3.594-3-2.352 4.049z" fill="url(#paint9_diamond)"/><ellipse cx="46.036" cy="7.302" rx="3.675" ry="3.712" transform="rotate(-10 46.036 7.302)" fill="url(#paint10_radial)"/><ellipse cx="28.649" cy="16.022" rx="2.362" ry="2.386" transform="rotate(-10 28.649 16.022)" fill="url(#paint11_radial)"/><ellipse cx="65.358" cy="9.55" rx="2.362" ry="2.386" transform="rotate(-10 65.358 9.55)" fill="url(#paint12_radial)"/><path d="M63.232 24.144l-.001.003v-.003zm-.093.013c.027.016.048.03.064.042a.777.777 0 01-.046.062c-.108.132-.31.306-.634.513-.643.41-1.638.868-2.931 1.337-2.577.937-6.225 1.881-10.328 2.605-4.103.723-7.854 1.083-10.596 1.085-1.376 0-2.467-.089-3.212-.255-.375-.083-.624-.178-.77-.265a.74.74 0 01-.065-.042.729.729 0 01.046-.062c.108-.132.31-.306.634-.513.643-.41 1.637-.868 2.93-1.338 2.578-.936 6.225-1.88 10.329-2.604 4.103-.724 7.854-1.084 10.596-1.085 1.376-.001 2.466.088 3.211.254.376.084.625.179.772.266zm-28.564 5.04l.002.003a.014.014 0 01-.002-.003zm.017.097v-.004.004zm28.655-5.056l.002.003-.002-.003z" fill="#9B6E00" stroke="url(#paint13_linear)" stroke-width="1.278"/><defs><linearGradient id="paint0_linear" x1="95.343" y1="33.94" x2="73.564" y2="55.719" gradientUnits="userSpaceOnUse"><stop stop-color="#FFE360"/><stop offset="1" stop-color="#FFCD1E" stop-opacity="0"/></linearGradient><linearGradient id="paint1_linear" x1="100.755" y1="41.49" x2="111.955" y2="41.49" gradientUnits="userSpaceOnUse"><stop stop-color="#FFE360"/><stop offset="1" stop-color="#FFCD1E" stop-opacity="0"/></linearGradient><linearGradient id="paint2_linear" x1="17.898" y1="94.799" x2="39.677" y2="73.02" gradientUnits="userSpaceOnUse"><stop stop-color="#FFE360"/><stop offset="1" stop-color="#FFCD1E" stop-opacity="0"/></linearGradient><linearGradient id="paint3_linear" x1="0" y1="2.523" x2="11" y2="2.523" gradientUnits="userSpaceOnUse"><stop stop-color="#FFE360"/><stop offset="1" stop-color="#FFCD1E" stop-opacity="0"/></linearGradient><linearGradient id="paint4_linear" x1="46.062" y1="14.36" x2="48.324" y2="23.485" gradientUnits="userSpaceOnUse"><stop stop-color="#FFB212"/><stop offset="1" stop-color="#FF8C14"/></linearGradient><linearGradient id="paint5_linear" x1="46.062" y1="14.36" x2="48.324" y2="23.485" gradientUnits="userSpaceOnUse"><stop stop-color="#FFB212"/><stop offset="1" stop-color="#FF8C14"/></linearGradient><linearGradient id="paint6_linear" x1="46.062" y1="14.36" x2="48.324" y2="23.485" gradientUnits="userSpaceOnUse"><stop stop-color="#FFB212"/><stop offset="1" stop-color="#FF8C14"/></linearGradient><linearGradient id="paint7_linear" x1="46.062" y1="14.36" x2="48.324" y2="23.485" gradientUnits="userSpaceOnUse"><stop stop-color="#FFB212"/><stop offset="1" stop-color="#FF8C14"/></linearGradient><linearGradient id="paint8_linear" x1="45.688" y1="19.841" x2="68.593" y2="23.115" gradientUnits="userSpaceOnUse"><stop stop-color="#FFE360"/><stop offset="1" stop-color="#F7AB0D"/></linearGradient><linearGradient id="paint13_linear" x1="47.661" y1="21.524" x2="50.914" y2="29.817" gradientUnits="userSpaceOnUse"><stop stop-color="#D8BB34"/><stop offset="1" stop-color="#CC861E"/></linearGradient><radialGradient id="paint9_diamond" cx="0" cy="0" r="1" gradientUnits="userSpaceOnUse" gradientTransform="rotate(79.121 12.073 39.013) scale(8.55214 7.0812)"><stop stop-color="#FFCBBD"/><stop offset=".226" stop-color="#F56C48"/><stop offset="1" stop-color="#5B1520"/></radialGradient><radialGradient id="paint10_radial" cx="0" cy="0" r="1" gradientUnits="userSpaceOnUse" gradientTransform="matrix(1.3125 4.375 -4.3385 1.30155 44.724 6.64)"><stop stop-color="#FFEA7C"/><stop offset="1" stop-color="#FFB212"/></radialGradient><radialGradient id="paint11_radial" cx="0" cy="0" r="1" gradientUnits="userSpaceOnUse" gradientTransform="matrix(.84375 2.8125 -2.78904 .8367 27.805 15.596)"><stop stop-color="#FFEA7C"/><stop offset="1" stop-color="#FFB212"/></radialGradient><radialGradient id="paint12_radial" cx="0" cy="0" r="1" gradientUnits="userSpaceOnUse" gradientTransform="matrix(.84375 2.8125 -2.78904 .8367 64.514 9.123)"><stop stop-color="#FFEA7C"/><stop offset="1" stop-color="#FFB212"/></radialGradient></defs></svg>