<svg width="112" height="121" fill="none" xmlns="http://www.w3.org/2000/svg"><path d="M99.44 46.56L81.97 64.03 65 47.06l13.15-13.149a2.58 2.58 0 013.647 0l.648.648c.65.65.65 1.702 0 2.352a1.662 1.662 0 000 2.35l.57.57a2.467 2.467 0 003.489 0l5.667-5.668a2.467 2.467 0 013.49 3.49l-2.857 2.856a2.243 2.243 0 003.172 3.172l.293-.293a2.243 2.243 0 013.172 3.172z" fill="url(#paint0_linear)"/><rect x="100.755" y="39.258" width="11.2" height="4.235" rx="2.118" transform="rotate(-45 100.755 39.258)" fill="url(#paint1_linear)"/><path d="M30.613 98.802l17.47-17.47-16.97-16.97-13.15 13.148a2.58 2.58 0 000 3.648l.649.649c.65.649 1.702.649 2.351 0 .65-.65 1.702-.65 2.351 0l.57.569a2.467 2.467 0 010 3.489l-5.669 5.668a2.467 2.467 0 003.49 3.489l2.856-2.857a2.243 2.243 0 013.172 3.172l-.293.293a2.243 2.243 0 003.172 3.172z" fill="url(#paint2_linear)"/><rect width="11" height="5" rx="2.5" transform="scale(-1 1) rotate(45 -121.819 29.459)" fill="url(#paint3_linear)"/><circle cx="7" cy="64.362" r="4" fill="url(#paint4_linear)"/><circle cx="101" cy="68.362" r="4" fill="#FFE360"/><circle cx="101" cy="68.362" r="4" fill="url(#paint5_linear)"/><path d="M44.22 17.534l-6.667 2.252-1.174-6.659.591-1.181c2.159 3.173 5.558 5.571 7.25 5.588z" fill="url(#paint6_linear)"/><path d="M39.67 12.143a2.373 2.373 0 01-1.912 2.76c-1.285.227-2.512-.642-2.74-1.94a2.373 2.373 0 011.911-2.76c1.285-.226 2.512.642 2.741 1.94z" fill="url(#paint7_linear)"/><path d="M50.811 16.371l7.035-.163-1.174-6.659-.96-.908c-.943 3.72-3.317 7.137-4.9 7.73z" fill="url(#paint8_linear)"/><path d="M53.242 9.75c.229 1.298 1.456 2.166 2.741 1.94 1.285-.227 2.141-1.463 1.912-2.76-.229-1.299-1.456-2.167-2.74-1.94-1.286.226-2.142 1.462-1.913 2.76z" fill="url(#paint9_linear)"/><path d="M28.724 15.823l2.784 2.103c5.687 4.295 13.575-.727 12.224-7.71a.13.13 0 01.103-.154l4.136-.73a.13.13 0 01.15.11c1.118 7.024 10.248 9.045 14.122 3.064l1.897-2.928 1.957 1.27-2.525 13.235-29.899 5.272-6.353-11.669 1.404-1.863z" fill="url(#paint10_linear)"/><path d="M44.832 20.252l3.617 3.132 2.329-4.18-3.595-3.001-2.351 4.05z" fill="url(#paint11_diamond)"/><ellipse cx="45.747" cy="7.302" rx="3.675" ry="3.712" transform="rotate(-10 45.747 7.302)" fill="url(#paint12_linear)"/><ellipse cx="28.359" cy="16.022" rx="2.362" ry="2.386" transform="rotate(-10 28.36 16.022)" fill="url(#paint13_linear)"/><ellipse cx="65.068" cy="9.549" rx="2.362" ry="2.386" transform="rotate(-10 65.068 9.55)" fill="url(#paint14_linear)"/><ellipse cx="48.622" cy="26.719" rx="15.18" ry="2.667" transform="rotate(-10 48.622 26.72)" fill="url(#paint15_linear)" stroke="url(#paint16_linear)"/><defs><linearGradient id="paint0_linear" x1="86.888" y1="44.672" x2="76.258" y2="60.094" gradientUnits="userSpaceOnUse"><stop stop-color="#FFE5C6"/><stop offset="1" stop-color="#FFC783" stop-opacity="0"/></linearGradient><linearGradient id="paint1_linear" x1="105.713" y1="41.691" x2="111.768" y2="43.986" gradientUnits="userSpaceOnUse"><stop stop-color="#FFE5C6"/><stop offset="1" stop-color="#FFC783" stop-opacity="0"/></linearGradient><linearGradient id="paint2_linear" x1="28.724" y1="86.249" x2="44.146" y2="75.62" gradientUnits="userSpaceOnUse"><stop stop-color="#FFE5C6"/><stop offset="1" stop-color="#FFC783" stop-opacity="0"/></linearGradient><linearGradient id="paint3_linear" x1="4.869" y1="2.873" x2="11.056" y2="4.824" gradientUnits="userSpaceOnUse"><stop stop-color="#FFE5C6"/><stop offset="1" stop-color="#FFC783" stop-opacity="0"/></linearGradient><linearGradient id="paint4_linear" x1="6.541" y1="64.958" x2="11.388" y2="65.653" gradientUnits="userSpaceOnUse"><stop stop-color="#FFE5C6"/><stop offset="1" stop-color="#FFC783" stop-opacity="0"/></linearGradient><linearGradient id="paint5_linear" x1="100.541" y1="68.958" x2="105.388" y2="69.653" gradientUnits="userSpaceOnUse"><stop stop-color="#FFE5C6"/><stop offset="1" stop-color="#FFC783" stop-opacity="0"/></linearGradient><linearGradient id="paint6_linear" x1="48.027" y1="9.982" x2="50.147" y2="23.825" gradientUnits="userSpaceOnUse"><stop stop-color="#FFD19A"/><stop offset="1" stop-color="#FCB865"/></linearGradient><linearGradient id="paint7_linear" x1="48.027" y1="9.982" x2="50.147" y2="23.825" gradientUnits="userSpaceOnUse"><stop stop-color="#FFD19A"/><stop offset="1" stop-color="#FCB865"/></linearGradient><linearGradient id="paint8_linear" x1="48.027" y1="9.982" x2="50.147" y2="23.825" gradientUnits="userSpaceOnUse"><stop stop-color="#FFD19A"/><stop offset="1" stop-color="#FCB865"/></linearGradient><linearGradient id="paint9_linear" x1="48.027" y1="9.982" x2="50.147" y2="23.825" gradientUnits="userSpaceOnUse"><stop stop-color="#FFD19A"/><stop offset="1" stop-color="#FCB865"/></linearGradient><linearGradient id="paint10_linear" x1="45.399" y1="19.841" x2="68.304" y2="23.115" gradientUnits="userSpaceOnUse"><stop stop-color="#FFE5C6"/><stop offset="1" stop-color="#FFC783"/></linearGradient><linearGradient id="paint12_linear" x1="45.325" y1="7.855" x2="49.781" y2="8.488" gradientUnits="userSpaceOnUse"><stop stop-color="#FFE5C6"/><stop offset="1" stop-color="#FFC783"/></linearGradient><linearGradient id="paint13_linear" x1="28.088" y1="16.378" x2="30.953" y2="16.784" gradientUnits="userSpaceOnUse"><stop stop-color="#FFE5C6"/><stop offset="1" stop-color="#FFC783"/></linearGradient><linearGradient id="paint14_linear" x1="64.797" y1="9.905" x2="67.661" y2="10.311" gradientUnits="userSpaceOnUse"><stop stop-color="#FFE5C6"/><stop offset="1" stop-color="#FFC783"/></linearGradient><linearGradient id="paint15_linear" x1="49.945" y1="22.548" x2="50.052" y2="26.977" gradientUnits="userSpaceOnUse"><stop stop-color="#E2BC8F"/><stop offset="1" stop-color="#E5BF92"/></linearGradient><linearGradient id="paint16_linear" x1="48.622" y1="24.053" x2="48.622" y2="29.386" gradientUnits="userSpaceOnUse"><stop stop-color="#F9E3C8"/><stop offset="1" stop-color="#E9C69D"/></linearGradient><radialGradient id="paint11_diamond" cx="0" cy="0" r="1" gradientUnits="userSpaceOnUse" gradientTransform="rotate(79.121 11.928 38.837) scale(8.55214 7.0812)"><stop stop-color="#fff"/><stop offset=".226" stop-color="#60F548"/><stop offset="1" stop-color="#175B15"/></radialGradient></defs></svg>