<svg width="80" height="60" fill="none" xmlns="http://www.w3.org/2000/svg"><path d="M34.868 32.259l-10.9 4.71-2.96-10.89.822-2.047c4.106 4.957 10.187 8.446 13.038 8.227z" fill="url(#paint0_linear)"/><path d="M26.41 23.966a3.953 3.953 0 01-2.816 4.863 4.022 4.022 0 01-4.904-2.824 3.953 3.953 0 012.815-4.863 4.022 4.022 0 014.904 2.824z" fill="url(#paint1_linear)"/><path d="M45.804 29.37l11.83-1.294-2.96-10.889-1.752-1.368c-1.04 6.316-4.537 12.336-7.118 13.551z" fill="url(#paint2_linear)"/><path d="M48.924 18.02a4.022 4.022 0 004.904 2.823 3.953 3.953 0 002.815-4.863 4.022 4.022 0 00-4.904-2.824 3.953 3.953 0 00-2.815 4.863z" fill="url(#paint3_linear)"/><path d="M8.508 31.669l5.002 3.088c10.213 6.307 22.762-3.178 19.46-14.58a.218.218 0 01.15-.273l6.861-1.812a.222.222 0 01.268.161c2.923 11.503 18.602 13.532 24.248 3.036l2.765-5.14 3.484 1.826-2.304 22.35-49.6 13.1L6.416 34.968l2.091-3.298z" fill="url(#paint4_linear)"/><path d="M36.3 36.685l6.558 4.676 3.306-7.281-6.498-4.463-3.365 7.068z" fill="url(#paint5_diamond)"/><ellipse rx="6.21" ry="6.195" transform="matrix(.96684 -.25538 .2623 .96499 35.934 15.041)" fill="url(#paint6_radial)"/><ellipse rx="3.992" ry="3.983" transform="matrix(.96684 -.25538 .2623 .96499 7.922 32.052)" fill="url(#paint7_radial)"/><ellipse rx="3.992" ry="3.983" transform="matrix(.96684 -.25538 .2623 .96499 68.82 15.967)" fill="url(#paint8_radial)"/><path d="M67.651 40.527v.002-.002zm-.295-.199c.22.104.282.183.296.206-.001.027-.015.126-.152.324-.186.267-.524.606-1.05 1.004-1.047.793-2.675 1.707-4.792 2.679-4.223 1.938-10.246 4.042-17.063 5.842-6.817 1.801-13.1 2.947-17.74 3.35-2.327.203-4.2.214-5.509.043-.658-.086-1.123-.212-1.418-.352-.22-.104-.282-.183-.296-.206 0-.026.014-.125.152-.324.185-.267.523-.605 1.05-1.004 1.046-.793 2.674-1.707 4.792-2.678 4.222-1.938 10.245-4.042 17.062-5.843 6.818-1.8 13.1-2.947 17.74-3.35 2.327-.202 4.2-.214 5.509-.043.658.086 1.123.212 1.419.352zM19.628 53.212l.001.001v-.001zm.004.014v-.002.002zm48.022-12.687l.001.002v-.002z" fill="#79264F" stroke="url(#paint9_linear)" stroke-width="1.632"/><defs><linearGradient id="paint0_linear" x1="37.018" y1="26.761" x2="42.043" y2="41.634" gradientUnits="userSpaceOnUse"><stop stop-color="#FFB212"/><stop offset="1" stop-color="#FF8C14"/></linearGradient><linearGradient id="paint1_linear" x1="37.018" y1="26.761" x2="42.043" y2="41.634" gradientUnits="userSpaceOnUse"><stop stop-color="#FFB212"/><stop offset="1" stop-color="#FF8C14"/></linearGradient><linearGradient id="paint2_linear" x1="37.018" y1="26.761" x2="42.043" y2="41.634" gradientUnits="userSpaceOnUse"><stop stop-color="#FFB212"/><stop offset="1" stop-color="#FF8C14"/></linearGradient><linearGradient id="paint3_linear" x1="37.018" y1="26.761" x2="42.043" y2="41.634" gradientUnits="userSpaceOnUse"><stop stop-color="#FFB212"/><stop offset="1" stop-color="#FF8C14"/></linearGradient><linearGradient id="paint4_linear" x1="37.197" y1="35.919" x2="76.269" y2="38.09" gradientUnits="userSpaceOnUse"><stop stop-color="#FFE360"/><stop offset="1" stop-color="#F7AB0D"/></linearGradient><linearGradient id="paint9_linear" x1="40.768" y1="38.429" x2="47.32" y2="51.806" gradientUnits="userSpaceOnUse"><stop stop-color="#C359BC"/><stop offset="1" stop-color="#BD4907"/></linearGradient><radialGradient id="paint5_diamond" cx="0" cy="0" r="1" gradientUnits="userSpaceOnUse" gradientTransform="rotate(73.904 -2.958 45.17) scale(14.2749 11.9639)"><stop stop-color="#FFCBBD"/><stop offset=".226" stop-color="#F56C48"/><stop offset="1" stop-color="#5B1520"/></radialGradient><radialGradient id="paint6_radial" cx="0" cy="0" r="1" gradientUnits="userSpaceOnUse" gradientTransform="rotate(73.105 -1.436 5.237) scale(7.63115 7.64596)"><stop stop-color="#FFEA7C"/><stop offset="1" stop-color="#FFB212"/></radialGradient><radialGradient id="paint7_radial" cx="0" cy="0" r="1" gradientUnits="userSpaceOnUse" gradientTransform="matrix(1.42574 4.694 -4.7031 1.4285 2.566 3.272)"><stop stop-color="#FFEA7C"/><stop offset="1" stop-color="#FFB212"/></radialGradient><radialGradient id="paint8_radial" cx="0" cy="0" r="1" gradientUnits="userSpaceOnUse" gradientTransform="matrix(1.42574 4.694 -4.7031 1.4285 2.566 3.272)"><stop stop-color="#FFEA7C"/><stop offset="1" stop-color="#FFB212"/></radialGradient></defs></svg>