<svg width="45" height="32" fill="none" xmlns="http://www.w3.org/2000/svg"><g filter="url(#filter0_d)"><path d="M9.338 21.228C11.505 23.398 15.504 26 22.264 26h.052c6.76 0 10.758-2.603 12.925-4.772 2.477-2.5 3.251-5.078 3.277-5.18.13-.433.052-.867-.18-1.25-.775-1.174-7.663-11.355-14.707-8.191-.026.025-.077.025-.103.05-.051.026-1.212.613-2.502-.025 0 0-.026 0-.026-.025h-.026C15.04 3.953 9.132 10.843 6.86 13.93l-.593.817a1.542 1.542 0 00-.207 1.301c.026.102.8 2.68 3.277 5.18z" fill="#fff"/></g><path d="M20.33 8.035c2.063.996 3.92 0 3.92 0 6.038-2.73 12.772 7.605 12.772 7.605s-2.606 9.11-15.248 8.829" fill="#EC4647"/><path d="M22.806 24.47c-12.643.28-15.248-8.83-15.248-8.83l.593-.816c1.754-2.399 7.224-9.033 12.204-6.788" fill="#EC4647"/><path d="M26.598 9.057h.13c.077 0 .18.025.283.025.232.051.516.102.826.23.154.051.335.128.516.204.18.077.36.153.541.255l.542.306c.18.103.361.23.542.358.18.127.361.255.516.357.18.127.335.255.49.383.155.127.31.23.439.357.129.127.258.23.387.332.232.204.413.382.542.51l.206.204c.18.179.18.46.026.638-.155.179-.439.179-.62.051h-.025s-.078-.05-.206-.178c-.13-.103-.336-.256-.568-.434a3.693 3.693 0 01-.387-.281 6.674 6.674 0 00-.439-.306 8.143 8.143 0 00-.49-.306 3.318 3.318 0 00-.516-.281 4.836 4.836 0 00-.516-.255 9.187 9.187 0 01-.49-.23c-.155-.077-.336-.128-.465-.178-.154-.052-.283-.103-.412-.128a2.196 2.196 0 00-.594-.102h-.18a.78.78 0 01-.826-.74.777.777 0 01.748-.817c-.051.026-.026.026 0 .026zm6.786 5.563c.342 0 .62-.275.62-.613a.616.616 0 00-.62-.612.616.616 0 00-.62.612c0 .338.278.612.62.612zm-20.202 3.47l.026.025.052.05.232.23c.103.102.258.23.439.358.18.127.387.28.619.433.129.077.232.154.361.23.13.077.258.153.413.23.129.076.284.153.439.204.154.076.31.153.464.204.155.077.335.128.49.204.18.051.361.102.516.179a1097.998 1097.998 0 011.084.306c.387.077.748.179 1.135.204.387.051.748.128 1.11.128.36.025.722.05 1.057.102.336.025.645.025.929.025.568 0 1.058-.025 1.393-.05.336-.026.516-.052.516-.052a.537.537 0 01.62.485.534.534 0 01-.49.613s-.052 0-.155.025c-.104.026-.233.026-.413.051-.361.051-.878.077-1.497.102h-1.006c-.335-.025-.722-.025-1.084-.05-.387 0-.774-.077-1.186-.103-.413-.025-.8-.127-1.213-.179-.206-.05-.413-.102-.62-.127-.206-.051-.412-.102-.593-.153a5.247 5.247 0 01-.593-.179c-.18-.076-.387-.128-.568-.204-.18-.051-.36-.128-.542-.204-.18-.077-.335-.153-.516-.23-.154-.076-.335-.153-.464-.23-.155-.076-.284-.153-.439-.23-.283-.152-.516-.33-.748-.484-.206-.153-.387-.306-.541-.408a4.78 4.78 0 01-.336-.306l-.129-.128c-.284-.306-.284-.791.026-1.072.31-.28.8-.28 1.083.026.078-.077.104-.077.13-.026zm13.948 3.334a.616.616 0 00-.61-.62.616.616 0 00-.628.605.616.616 0 00.612.62.616.616 0 00.627-.605z" fill="#fff"/><path d="M22.315 24.852h-.542a.395.395 0 01-.387-.383c0-.204.18-.382.387-.382h.542c10.655 0 13.751-6.941 14.268-8.345l.025-.05-.025-.052c-.904-1.275-5.573-7.68-10.192-7.68a4.74 4.74 0 00-1.96.408 5.06 5.06 0 01-2.168.485 4.568 4.568 0 01-2.09-.485c-.103-.051-.154-.128-.206-.23a.366.366 0 01.026-.28.403.403 0 01.335-.204c.052 0 .13.025.18.05a3.93 3.93 0 001.755.409c1.032 0 1.78-.383 1.806-.408h.026a5.34 5.34 0 012.27-.485c2.116 0 4.413 1.122 6.812 3.343 2.45 2.245 4.102 4.797 4.18 4.899.051.102.077.204.051.306-.026.102-.697 2.399-2.993 4.695-2.012 1.99-5.753 4.39-12.1 4.39z" fill="#4141B5"/><path d="M22.264 24.851c-6.347 0-10.088-2.424-12.1-4.44-2.271-2.296-2.968-4.593-2.994-4.695a.505.505 0 01.052-.332l.593-.79c.903-1.226 2.735-3.522 4.98-5.206 1.909-1.455 3.74-2.195 5.418-2.195.8 0 1.574.179 2.296.485.206.077.284.306.18.51a.405.405 0 01-.36.23c-.052 0-.104 0-.155-.025a4.656 4.656 0 00-1.961-.409c-4.231 0-8.54 5.41-9.779 7.069l-.464.663.026.051c.49 1.378 3.509 8.319 14.268 8.319h.541c.207 0 .387.178.387.383a.378.378 0 01-.387.382h-.541z" fill="#4141B5"/><path d="M17.723 15.87c1.264.51 2.735.79 4.283.79 1.547 0 3.018-.28 4.282-.79-1.264-.511-2.735-.792-4.282-.792a12.763 12.763 0 00-4.283.791z" fill="#3D3D3D"/><path d="M22.006 16.915a12.49 12.49 0 01-4.386-.79c-.104-.052-.155-.128-.155-.23 0-.102.077-.204.155-.23a12.383 12.383 0 014.386-.791c1.522 0 3.044.28 4.386.791.103.051.155.128.155.23 0 .102-.078.204-.155.23-1.342.51-2.838.79-4.386.79zm-3.51-1.046c2.194.69 4.826.69 7.019 0-2.194-.689-4.8-.689-7.018 0z" fill="#3D3D3D"/><path d="M10.37 16.635c-2.116 0-2.941-.766-2.993-.791a.245.245 0 010-.357.251.251 0 01.361 0c.026.025 1.136.995 4.103.536.206-.026 5.057-.791 6.579-.332.129.05.206.178.18.306a.28.28 0 01-.31.179c-1.392-.409-6.294.331-6.346.357-.594.05-1.135.102-1.574.102zm23.581 0c-.464 0-.98-.025-1.574-.128-.051 0-4.953-.765-6.346-.357a.23.23 0 01-.31-.178.226.226 0 01.18-.306c1.523-.46 6.373.306 6.58.331 2.992.434 4.102-.536 4.102-.536a.251.251 0 01.361 0 .245.245 0 010 .358c-.052.05-.877.816-2.993.816z" fill="#3D3D3D"/><defs><filter id="filter0_d" x="0" y="0" width="44.58" height="32" filterUnits="userSpaceOnUse" color-interpolation-filters="sRGB"><feFlood flood-opacity="0" result="BackgroundImageFix"/><feColorMatrix in="SourceAlpha" values="0 0 0 0 0 0 0 0 0 0 0 0 0 0 0 0 0 0 127 0"/><feOffset/><feGaussianBlur stdDeviation="3"/><feColorMatrix values="0 0 0 0 0.380392 0 0 0 0 0.364706 0 0 0 0 0.980392 0 0 0 0.39 0"/><feBlend in2="BackgroundImageFix" result="effect1_dropShadow"/><feBlend in="SourceGraphic" in2="effect1_dropShadow" result="shape"/></filter></defs></svg>