<svg width="40" height="40" fill="none" xmlns="http://www.w3.org/2000/svg"><circle cx="20" cy="20" r="19.447" fill="#fff" stroke="#F9F9F9" stroke-width="1.107"/><path fill-rule="evenodd" clip-rule="evenodd" d="M11.168 11.436v15.006c1.328 1.223 3.01 1.775 4.99 1.549V13.474c-1.092-3.151-3.054-2.572-4.99-2.038z" fill="url(#paint0_radial)"/><path fill-rule="evenodd" clip-rule="evenodd" d="M11.168 17.458v4.039c2.038.915 4.448-2.092 0-4.039z" fill="url(#paint1_radial)"/><path fill-rule="evenodd" clip-rule="evenodd" d="M6.949 10.168c-.22 2.816 1.496 6.104 4.22 7.29v-2.952c-2.149-.417-3.798-1.739-4.22-4.338z" fill="url(#paint2_radial)"/><path fill-rule="evenodd" clip-rule="evenodd" d="M8.046 18.39c.27 3.686 1.37 6.457 3.12 8.06v-4.944c-.955-.426-2.063-1.386-3.12-3.115z" fill="url(#paint3_radial)"/><path fill-rule="evenodd" clip-rule="evenodd" d="M23.216 11.662L20.138 9.76 17.01 7.822a3.616 3.616 0 00-1.353-.516 3.444 3.444 0 00-1.928.2c1.43 1.91 2.157 4.11 2.419 5.958l11.745 7.263c-3.28-2.327-3.915-5.995-4.676-9.065z" fill="url(#paint4_radial)"/><path fill-rule="evenodd" clip-rule="evenodd" d="M15.666 7.306c2.647 3.794 4.152 3.73 4.473 2.454l-3.128-1.938a3.737 3.737 0 00-1.345-.516z" fill="url(#paint5_radial)"/><path fill-rule="evenodd" clip-rule="evenodd" d="M19.182 6.347c.862 1.15 1.175 2.553.955 3.414l3.078 1.902c-.642-2.645-1.395-4.836-4.033-5.316z" fill="url(#paint6_radial)"/><path fill-rule="evenodd" clip-rule="evenodd" d="M5.754 2.994c3.797.498 6.35 2.318 7.982 4.51a3.444 3.444 0 011.928-.2c-2.13-3.06-5.513-4.735-9.91-4.31z" fill="url(#paint7_radial)"/><path fill-rule="evenodd" clip-rule="evenodd" d="M11.165 11.436c-1.632.462-3.239.914-4.22-1.268.423 2.599 2.072 3.912 4.22 4.347 3.247.652 4.66 2.87 4.989 8.069v-9.11c-1.09-3.152-3.053-2.572-4.99-2.038z" fill="url(#paint8_radial)"/><path fill-rule="evenodd" clip-rule="evenodd" d="M6.945 10.168c.423 2.599 2.072 3.912 4.22 4.347v-3.08c-1.632.463-3.239.925-4.22-1.267z" fill="url(#paint9_radial)"/><path fill-rule="evenodd" clip-rule="evenodd" d="M11.165 14.162c-2.148-.426-3.712-1.621-4.22-3.994.423 2.599 2.072 3.912 4.22 4.347 3.247.652 4.66 2.87 4.989 8.069 0-5.316-1.742-7.77-4.99-8.422z" fill="url(#paint10_radial)"/><path fill-rule="evenodd" clip-rule="evenodd" d="M5.754 2.996c3.053 1.494 5.412 4.782 5.412 8.44 1.936-.543 3.898-1.123 4.989 2.029-.254-1.857-.99-4.048-2.419-5.96-1.632-2.182-4.185-4.002-7.982-4.509z" fill="url(#paint11_radial)"/><path fill-rule="evenodd" clip-rule="evenodd" d="M5.754 2.996c3.053 1.494 5.412 4.782 5.412 8.44 0-1.521.71-2.843 1.945-3.613.203-.127.414-.236.625-.317-1.632-2.183-4.185-4.003-7.982-4.51z" fill="url(#paint12_radial)"/><path fill-rule="evenodd" clip-rule="evenodd" d="M5.754 2.996c3.458.625 5.995 2.445 7.661 4.664a12.64 12.64 0 012.19 4.636c.203.318.38.707.55 1.178-.254-1.857-.99-4.048-2.419-5.959-1.632-2.192-4.185-4.012-7.982-4.519z" fill="url(#paint13_radial)"/><path fill-rule="evenodd" clip-rule="evenodd" d="M32.037 17.123l-4.913-3.052c-2.646-2.572-2.773-7.453-7.94-7.724 2.647.48 3.391 2.671 4.042 5.315.753 3.061 1.387 6.729 4.676 9.065L16.157 27.99c-1.979.236-3.662-.326-4.99-1.548-1.75-1.603-2.85-4.374-3.12-8.06-.558 5.207.88 9.998 3.12 11.637 0 1.54.71 2.843 1.954 3.613 1.243.77 2.655.77 3.898 0l7.51-4.646 7.517-4.645c1.243-.77 1.953-2.092 1.953-3.614-.008-1.53-.719-2.852-1.962-3.604z" fill="url(#paint14_radial)"/><path fill-rule="evenodd" clip-rule="evenodd" d="M19.184 6.347c2.646.48 3.39 2.671 4.042 5.315l1.302.806 2.596 1.603c-2.647-2.572-2.782-7.453-7.94-7.724z" fill="url(#paint15_radial)"/><path fill-rule="evenodd" clip-rule="evenodd" d="M8.047 18.39c-.558 5.199.88 9.99 3.12 11.628v-3.577c-1.75-1.603-2.85-4.374-3.12-8.05z" fill="url(#paint16_radial)"/><path fill-rule="evenodd" clip-rule="evenodd" d="M23.555 11.87c-.676-2.807-1.446-5.116-4.371-5.523 2.646.48 3.39 2.671 4.042 5.315.752 3.061 1.386 6.729 4.676 9.065-2.994-2.381-3.62-5.895-4.347-8.856z" fill="url(#paint17_radial)"/><path fill-rule="evenodd" clip-rule="evenodd" d="M11.165 26.45c-1.75-1.602-2.85-4.374-3.12-8.06.144 4.03 1.243 6.983 3.12 8.522 1.31 1.078 2.994 1.467 4.99 1.078-1.98.235-3.662-.326-4.99-1.54z" fill="url(#paint18_radial)"/><path fill-rule="evenodd" clip-rule="evenodd" d="M32.036 17.124l-4.913-3.052c1.64 3.433 6.731 5.524 4.921 10.279 1.244-.77 1.954-2.092 1.954-3.614-.009-1.54-.719-2.861-1.962-3.613z" fill="url(#paint19_radial)"/><path fill-rule="evenodd" clip-rule="evenodd" d="M8.047 18.39c-.558 5.199.88 9.99 3.12 11.628V28.57c-1.961-1.993-3.28-5.217-3.12-10.18z" fill="url(#paint20_radial)"/><path fill-rule="evenodd" clip-rule="evenodd" d="M11.166 28.57v1.45c0 1.539.71 2.843 1.953 3.613s2.656.77 3.899 0l5.006-3.098c-2.85 1.214-7.687 1.26-10.858-1.965z" fill="url(#paint21_radial)"/><defs><radialGradient id="paint0_radial" cx="0" cy="0" r="1" gradientUnits="userSpaceOnUse" gradientTransform="matrix(17.7763 0 0 19.0371 2.512 20.183)"><stop stop-color="#fff"/><stop offset=".5" stop-color="#FBB03B"/><stop offset="1" stop-color="#C4272E"/></radialGradient><radialGradient id="paint1_radial" cx="0" cy="0" r="1" gradientUnits="userSpaceOnUse" gradientTransform="matrix(19.4996 0 0 20.8826 4.58 19.603)"><stop stop-color="#fff"/><stop offset=".5" stop-color="#FBB03B"/><stop offset="1" stop-color="#C4272E"/></radialGradient><radialGradient id="paint2_radial" cx="0" cy="0" r="1" gradientUnits="userSpaceOnUse" gradientTransform="matrix(18.2588 0 0 19.5538 1.971 5.312)"><stop stop-color="#fff"/><stop offset=".5" stop-color="#FBB03B"/><stop offset="1" stop-color="#C4272E"/></radialGradient><radialGradient id="paint3_radial" cx="0" cy="0" r="1" gradientUnits="userSpaceOnUse" gradientTransform="matrix(15.693 0 0 16.806 4.776 13.38)"><stop stop-color="#fff"/><stop offset=".5" stop-color="#FBB03B"/><stop offset="1" stop-color="#C4272E"/></radialGradient><radialGradient id="paint4_radial" cx="0" cy="0" r="1" gradientUnits="userSpaceOnUse" gradientTransform="matrix(31.5815 0 0 33.8215 33.074 -.278)"><stop stop-color="#fff"/><stop offset=".5" stop-color="#FBB03B"/><stop offset="1" stop-color="#C4272E"/></radialGradient><radialGradient id="paint5_radial" cx="0" cy="0" r="1" gradientUnits="userSpaceOnUse" gradientTransform="matrix(19.7488 0 0 21.1495 25.212 4.098)"><stop stop-color="#fff"/><stop offset=".5" stop-color="#FBB03B"/><stop offset="1" stop-color="#C4272E"/></radialGradient><radialGradient id="paint6_radial" cx="0" cy="0" r="1" gradientUnits="userSpaceOnUse" gradientTransform="matrix(10.4514 0 0 11.1927 20.68 2.464)"><stop stop-color="#fff"/><stop offset=".5" stop-color="#FBB03B"/><stop offset="1" stop-color="#C4272E"/></radialGradient><radialGradient id="paint7_radial" cx="0" cy="0" r="1" gradientUnits="userSpaceOnUse" gradientTransform="matrix(22.1246 0 0 23.6938 -1.035 -1.967)"><stop stop-color="#fff"/><stop offset=".5" stop-color="#FBB03B"/><stop offset="1" stop-color="#C4272E"/></radialGradient><radialGradient id="paint8_radial" cx="0" cy="0" r="1" gradientUnits="userSpaceOnUse" gradientTransform="matrix(28.0657 0 0 30.0563 3.839 6.155)"><stop stop-color="#fff"/><stop offset=".5" stop-color="#FBB03B"/><stop offset="1" stop-color="#C4272E"/></radialGradient><radialGradient id="paint9_radial" cx="0" cy="0" r="1" gradientUnits="userSpaceOnUse" gradientTransform="matrix(17.8663 0 0 19.1335 5.07 8.16)"><stop stop-color="#fff"/><stop offset=".5" stop-color="#FBB03B"/><stop offset="1" stop-color="#C4272E"/></radialGradient><radialGradient id="paint10_radial" cx="0" cy="0" r="1" gradientUnits="userSpaceOnUse" gradientTransform="matrix(11.9658 0 0 12.8145 11.767 13.433)"><stop stop-color="#fff"/><stop offset=".5" stop-color="#FBB03B"/><stop offset="1" stop-color="#C4272E"/></radialGradient><radialGradient id="paint11_radial" cx="0" cy="0" r="1" gradientUnits="userSpaceOnUse" gradientTransform="matrix(27.6274 0 0 29.5869 10.34 -4.707)"><stop stop-color="#fff"/><stop offset=".5" stop-color="#FBB03B"/><stop offset="1" stop-color="#C4272E"/></radialGradient><radialGradient id="paint12_radial" cx="0" cy="0" r="1" gradientUnits="userSpaceOnUse" gradientTransform="matrix(27.7855 0 0 29.7562 .442 -1.807)"><stop stop-color="#fff"/><stop offset=".5" stop-color="#FBB03B"/><stop offset="1" stop-color="#C4272E"/></radialGradient><radialGradient id="paint13_radial" cx="0" cy="0" r="1" gradientUnits="userSpaceOnUse" gradientTransform="matrix(13.2535 0 0 14.1935 10.881 6.42)"><stop stop-color="#fff"/><stop offset=".5" stop-color="#FBB03B"/><stop offset="1" stop-color="#C4272E"/></radialGradient><radialGradient id="paint14_radial" cx="0" cy="0" r="1" gradientUnits="userSpaceOnUse" gradientTransform="matrix(30.5515 0 0 32.7184 16.103 15.332)"><stop stop-color="#fff"/><stop offset=".5" stop-color="#FBB03B"/><stop offset="1" stop-color="#C4272E"/></radialGradient><radialGradient id="paint15_radial" cx="0" cy="0" r="1" gradientUnits="userSpaceOnUse" gradientTransform="matrix(20.3792 0 0 21.8246 17.186 8.107)"><stop stop-color="#fff"/><stop offset=".5" stop-color="#FBB03B"/><stop offset="1" stop-color="#C4272E"/></radialGradient><radialGradient id="paint16_radial" cx="0" cy="0" r="1" gradientUnits="userSpaceOnUse" gradientTransform="matrix(28.0773 0 0 30.0687 7.486 13.116)"><stop stop-color="#fff"/><stop offset=".5" stop-color="#FBB03B"/><stop offset="1" stop-color="#C4272E"/></radialGradient><radialGradient id="paint17_radial" cx="0" cy="0" r="1" gradientUnits="userSpaceOnUse" gradientTransform="matrix(20.514 0 0 21.969 22.405 12.115)"><stop stop-color="#fff"/><stop offset=".5" stop-color="#FBB03B"/><stop offset="1" stop-color="#C4272E"/></radialGradient><radialGradient id="paint18_radial" cx="0" cy="0" r="1" gradientUnits="userSpaceOnUse" gradientTransform="matrix(19.4444 0 0 20.8235 6.843 25.561)"><stop stop-color="#fff"/><stop offset=".5" stop-color="#FBB03B"/><stop offset="1" stop-color="#C4272E"/></radialGradient><radialGradient id="paint19_radial" cx="0" cy="0" r="1" gradientUnits="userSpaceOnUse" gradientTransform="matrix(31.3944 0 0 33.621 39.029 14.077)"><stop stop-color="#fff"/><stop offset=".5" stop-color="#FBB03B"/><stop offset="1" stop-color="#C4272E"/></radialGradient><radialGradient id="paint20_radial" cx="0" cy="0" r="1" gradientUnits="userSpaceOnUse" gradientTransform="matrix(31.3555 0 0 33.5794 2.781 18.845)"><stop stop-color="#fff"/><stop offset=".5" stop-color="#FBB03B"/><stop offset="1" stop-color="#C4272E"/></radialGradient><radialGradient id="paint21_radial" cx="0" cy="0" r="1" gradientUnits="userSpaceOnUse" gradientTransform="matrix(25.672 0 0 27.4927 13.04 37.32)"><stop stop-color="#fff"/><stop offset=".5" stop-color="#FBB03B"/><stop offset="1" stop-color="#C4272E"/></radialGradient></defs></svg>