<svg width="70" height="70" viewBox="0 0 70 70" fill="none" xmlns="http://www.w3.org/2000/svg">
<g filter="url(#filter0_d)">
<path d="M35 55C46.0457 55 55 46.0457 55 35C55 23.9543 46.0457 15 35 15C23.9543 15 15 23.9543 15 35C15 46.0457 23.9543 55 35 55Z" fill="white"/>
</g>
<path d="M27.3502 30.7501L35.0002 23.1001L42.0835 30.1834C44.7437 32.8436 44.7437 37.1566 42.0835 39.8168L37.2669 44.6334C36.015 45.8853 33.9854 45.8853 32.7335 44.6334L27.3502 39.2501C25.003 36.9029 25.003 33.0973 27.3502 30.7501Z" fill="#F64D56"/>
<path d="M30.041 32.5918C28.7109 33.9219 28.711 36.0783 30.041 37.4084L34.9994 42.3668L39.9577 37.4084C41.2878 36.0783 41.2878 33.9219 39.9577 32.5918C38.6276 31.2617 36.4711 31.2617 35.141 32.5918L34.9994 32.7334L34.8577 32.5918C33.5276 31.2617 31.3711 31.2617 30.041 32.5918Z" fill="white"/>
<path d="M27.35 30.75L30.1833 27.9167L27.6333 25.3667L24.8 28.2C21.0445 31.9555 21.0445 38.0445 24.8 41.8L30.1833 47.1833C32.8435 49.8435 37.1565 49.8435 39.8167 47.1833L44.6333 42.3667C48.7018 38.2982 48.7018 31.7018 44.6333 27.6333L42.3667 25.3667L39.8167 27.9167L42.0833 30.1833C44.7435 32.8435 44.7435 37.1565 42.0833 39.8167L37.2667 44.6333C36.0148 45.8852 33.9852 45.8852 32.7333 44.6333L27.35 39.25C25.0028 36.9028 25.0028 33.0972 27.35 30.75Z" fill="url(#paint0_linear)"/>
<defs>
<filter id="filter0_d" x="0" y="0" width="70" height="70" filterUnits="userSpaceOnUse" color-interpolation-filters="sRGB">
<feFlood flood-opacity="0" result="BackgroundImageFix"/>
<feColorMatrix in="SourceAlpha" type="matrix" values="0 0 0 0 0 0 0 0 0 0 0 0 0 0 0 0 0 0 127 0" result="hardAlpha"/>
<feOffset/>
<feGaussianBlur stdDeviation="7.5"/>
<feColorMatrix type="matrix" values="0 0 0 0 0 0 0 0 0 0 0 0 0 0 0 0 0 0 0.05 0"/>
<feBlend mode="normal" in2="BackgroundImageFix" result="effect1_dropShadow"/>
<feBlend mode="normal" in="SourceGraphic" in2="effect1_dropShadow" result="shape"/>
</filter>
<linearGradient id="paint0_linear" x1="35" y1="18" x2="35" y2="60.2437" gradientUnits="userSpaceOnUse">
<stop stop-color="#F64D56"/>
<stop offset="1" stop-color="#FBB952"/>
</linearGradient>
</defs>
</svg>
