<svg width="24" height="24" fill="none" xmlns="http://www.w3.org/2000/svg"><path d="M18.594 6H5.406c-.216 0-.419.053-.602.14l7.165 7.166 1.606-1.543 5.622-5.622A1.39 1.39 0 0018.594 6zm1.266.805l-5.29 5.29 5.29 5.29a1.39 1.39 0 00.14-.603V7.407a1.39 1.39 0 00-.14-.602zM4.14 6.804a1.39 1.39 0 00-.14.602v9.375c0 .217.053.42.14.603l5.291-5.29-5.29-5.29z" fill="#F64953"/><path d="M13.907 12.756L12.3 14.299a.467.467 0 01-.662 0l-1.544-1.543-5.29 5.29c.183.088.386.14.602.14h13.188c.217 0 .42-.052.603-.14l-5.29-5.29z" fill="#F64953"/></svg>