<svg width="68" height="67" fill="none" xmlns="http://www.w3.org/2000/svg"><path d="M60.123 28.694L48.87 39.938 37.938 29.016l8.47-8.462a1.662 1.662 0 012.35 0l.417.417a1.07 1.07 0 010 1.513 1.07 1.07 0 000 1.513l.367.367c.62.62 1.627.62 2.247 0l3.651-3.648a1.59 1.59 0 012.248 0c.62.62.62 1.625 0 2.245l-1.84 1.839a1.443 1.443 0 000 2.041c.564.564 1.48.564 2.043 0l.189-.188a1.446 1.446 0 012.043 0 1.443 1.443 0 010 2.041z" fill="url(#paint0_linear)"/><rect width="7.211" height="2.727" rx="1.363" transform="rotate(-44.974 59.468 -61.647)" fill="url(#paint1_linear)"/><path d="M15.787 62.316l11.254-11.244-10.932-10.921-8.47 8.462a1.659 1.659 0 000 2.348l.418.417a1.071 1.071 0 001.514 0 1.072 1.072 0 011.515 0l.366.366c.621.62.621 1.626 0 2.246l-3.65 3.647a1.59 1.59 0 002.247 2.246l1.84-1.838a1.446 1.446 0 012.043 0 1.443 1.443 0 010 2.041l-.188.188a1.443 1.443 0 000 2.042 1.445 1.445 0 002.043 0z" fill="url(#paint2_linear)"/><rect width="7.082" height="3.219" rx="1.61" transform="scale(-1.00046 .99954) rotate(45 -74.935 23.077)" fill="url(#paint3_linear)"/><ellipse cx="61.127" cy="42.725" rx="2.577" ry="2.574" fill="url(#paint4_linear)"/><path d="M27.247 10.805l-4.127 1.391-.723-4.098.367-.727c1.334 1.952 3.437 3.426 4.483 3.434z" fill="url(#paint5_linear)"/><path d="M24.435 7.49c.14.8-.39 1.56-1.185 1.7a1.466 1.466 0 01-1.696-1.192c-.14-.798.39-1.56 1.186-1.7a1.466 1.466 0 011.695 1.192z" fill="url(#paint6_linear)"/><path d="M31.328 10.086l4.354-.105-.722-4.098-.594-.558c-.586 2.29-2.058 4.395-3.038 4.76z" fill="url(#paint7_linear)"/><path d="M32.837 6.009c.14.799.9 1.332 1.695 1.192a1.465 1.465 0 001.185-1.7 1.465 1.465 0 00-1.695-1.192 1.465 1.465 0 00-1.185 1.7z" fill="url(#paint8_linear)"/><path d="M17.657 9.762l1.722 1.293c3.517 2.64 8.402-.455 7.57-4.753a.08.08 0 01.064-.095l2.561-.451a.08.08 0 01.092.067c.689 4.323 6.338 5.56 8.74 1.877l1.176-1.803 1.21.78-1.571 8.148-18.509 3.263-3.925-7.178.87-1.148z" fill="url(#paint9_linear)"/><path d="M27.624 12.479l2.237 1.925 1.444-2.574-2.223-1.845-1.458 2.494z" fill="url(#paint10_diamond)"/><ellipse cx="28.199" cy="4.507" rx="2.275" ry="2.284" transform="rotate(-10 28.2 4.507)" fill="url(#paint11_radial)"/><ellipse cx="17.432" cy="9.885" rx="1.463" ry="1.469" transform="rotate(-10 17.432 9.885)" fill="url(#paint12_radial)"/><ellipse cx="40.156" cy="5.878" rx="1.463" ry="1.469" transform="rotate(-10 40.156 5.878)" fill="url(#paint13_radial)"/><path d="M38.613 14.756l-.002.003.002-.003zm-.368.191l.118.029-.101.067c-.377.239-.973.514-1.768.802-1.579.571-3.823 1.152-6.353 1.598-2.531.447-4.838.668-6.518.671-.845.002-1.5-.053-1.935-.149a2.792 2.792 0 01-.118-.028 2.22 2.22 0 01.101-.067c.377-.24.973-.514 1.768-.802 1.579-.572 3.823-1.153 6.354-1.599 2.53-.446 4.838-.668 6.517-.67.845-.002 1.5.052 1.935.148zM21.26 17.816a.049.049 0 000 0zm.06.34l.002-.002-.002.003zm17.35-3.061a.012.012 0 01.003.002l-.002-.002z" fill="#9B6E00" stroke="url(#paint14_linear)" stroke-width="1.278"/><defs><linearGradient id="paint0_linear" x1="57.484" y1="20.512" x2="43.468" y2="34.541" gradientUnits="userSpaceOnUse"><stop stop-color="#FFE360"/><stop offset="1" stop-color="#FFCD1E" stop-opacity="0"/></linearGradient><linearGradient id="paint1_linear" x1="0" y1="1.376" x2="7.211" y2="1.376" gradientUnits="userSpaceOnUse"><stop stop-color="#FFE360"/><stop offset="1" stop-color="#FFCD1E" stop-opacity="0"/></linearGradient><linearGradient id="paint2_linear" x1="7.597" y1="59.679" x2="21.613" y2="45.65" gradientUnits="userSpaceOnUse"><stop stop-color="#FFE360"/><stop offset="1" stop-color="#FFCD1E" stop-opacity="0"/></linearGradient><linearGradient id="paint3_linear" x1="0" y1="1.625" x2="7.082" y2="1.625" gradientUnits="userSpaceOnUse"><stop stop-color="#FFE360"/><stop offset="1" stop-color="#FFCD1E" stop-opacity="0"/></linearGradient><linearGradient id="paint4_linear" x1="58.551" y1="42.749" x2="63.704" y2="42.749" gradientUnits="userSpaceOnUse"><stop stop-color="#FFE360"/><stop offset="1" stop-color="#FFCD1E" stop-opacity="0"/></linearGradient><linearGradient id="paint5_linear" x1="28.211" y1="8.851" x2="29.6" y2="14.467" gradientUnits="userSpaceOnUse"><stop stop-color="#FFB212"/><stop offset="1" stop-color="#FF8C14"/></linearGradient><linearGradient id="paint6_linear" x1="28.211" y1="8.851" x2="29.6" y2="14.467" gradientUnits="userSpaceOnUse"><stop stop-color="#FFB212"/><stop offset="1" stop-color="#FF8C14"/></linearGradient><linearGradient id="paint7_linear" x1="28.211" y1="8.851" x2="29.6" y2="14.467" gradientUnits="userSpaceOnUse"><stop stop-color="#FFB212"/><stop offset="1" stop-color="#FF8C14"/></linearGradient><linearGradient id="paint8_linear" x1="28.211" y1="8.851" x2="29.6" y2="14.467" gradientUnits="userSpaceOnUse"><stop stop-color="#FFB212"/><stop offset="1" stop-color="#FF8C14"/></linearGradient><linearGradient id="paint9_linear" x1="27.976" y1="12.225" x2="42.143" y2="14.275" gradientUnits="userSpaceOnUse"><stop stop-color="#FFE360"/><stop offset="1" stop-color="#F7AB0D"/></linearGradient><linearGradient id="paint14_linear" x1="29.195" y1="13.259" x2="31.192" y2="18.367" gradientUnits="userSpaceOnUse"><stop stop-color="#D8BB34"/><stop offset="1" stop-color="#CC861E"/></linearGradient><radialGradient id="paint10_diamond" cx="0" cy="0" r="1" gradientUnits="userSpaceOnUse" gradientTransform="matrix(.99381 5.16827 -4.30476 .82777 29.472 12.194)"><stop stop-color="#FFCBBD"/><stop offset=".226" stop-color="#F56C48"/><stop offset="1" stop-color="#5B1520"/></radialGradient><radialGradient id="paint11_radial" cx="0" cy="0" r="1" gradientUnits="userSpaceOnUse" gradientTransform="matrix(.8125 2.69235 -2.68311 .80972 27.387 4.1)"><stop stop-color="#FFEA7C"/><stop offset="1" stop-color="#FFB212"/></radialGradient><radialGradient id="paint12_radial" cx="0" cy="0" r="1" gradientUnits="userSpaceOnUse" gradientTransform="matrix(.52232 1.7308 -1.72486 .52053 16.91 9.623)"><stop stop-color="#FFEA7C"/><stop offset="1" stop-color="#FFB212"/></radialGradient><radialGradient id="paint13_radial" cx="0" cy="0" r="1" gradientUnits="userSpaceOnUse" gradientTransform="matrix(.52232 1.7308 -1.72486 .52053 39.634 5.616)"><stop stop-color="#FFEA7C"/><stop offset="1" stop-color="#FFB212"/></radialGradient></defs></svg>