<svg width="12" height="12" fill="none" xmlns="http://www.w3.org/2000/svg"><g clip-path="url(#clip0)"><circle cx="6" cy="6" r="5" fill="url(#paint0_linear)"/><path d="M6 .001a6 6 0 100 12 6 6 0 000-12zm0 1.794a1.985 1.985 0 110 3.97 1.985 1.985 0 010-3.97zm-.001 8.637A4.403 4.403 0 013.13 9.374a.846.846 0 01-.297-.642c0-1.112.9-2.001 2.012-2.001h2.309c1.112 0 2.008.89 2.008 2a.844.844 0 01-.297.643A4.402 4.402 0 016 10.432z" fill="#fff"/></g><defs><linearGradient id="paint0_linear" x1="6" y1="12" x2="11.767" y2="4.345" gradientUnits="userSpaceOnUse"><stop stop-color="#FF4A53"/><stop offset="1" stop-color="#FFAE4E"/></linearGradient><clipPath id="clip0"><path fill="#fff" d="M0 0h12v12H0z"/></clipPath></defs></svg>