<svg width="28" height="28" fill="none" xmlns="http://www.w3.org/2000/svg"><path d="M24.633 6.416h-4.049V6a3.367 3.367 0 00-3.365-3.366H10.78A3.367 3.367 0 007.415 6v.416h-4.05A3.366 3.366 0 000 9.782V22a3.367 3.367 0 003.366 3.366h21.268A3.367 3.367 0 0028 22V9.782a3.368 3.368 0 00-3.367-3.366zM13.999 21.874a6.364 6.364 0 01-6.358-6.358 6.364 6.364 0 016.357-6.358 6.364 6.364 0 016.358 6.358 6.365 6.365 0 01-6.358 6.358zm3.365-6.358a3.371 3.371 0 01-3.366 3.366 3.371 3.371 0 01-3.365-3.366 3.371 3.371 0 013.366-3.366 3.371 3.371 0 013.365 3.366z" fill="#F64953"/></svg>