<svg width="30" height="32" viewBox="0 0 30 32" fill="none" xmlns="http://www.w3.org/2000/svg">
<rect width="30" height="30" rx="7" fill="#C9B0F1"/>
<g filter="url(#filter0_d)">
<path d="M15.0514 7.82L16.8714 6L23.2314 12.35L21.4014 14.17C20.8774 13.8315 20.2532 13.6826 19.6328 13.7481C19.0125 13.8136 18.4332 14.0895 17.9914 14.53L17.2414 15.28C16.3214 16.21 16.2014 17.63 16.8914 18.69L15.0614 20.51L12.6514 18.1L9.85139 20.89C9.43139 21.31 6.47139 23.6 6.05139 23.18C5.63139 22.76 7.91139 19.79 8.33139 19.37L11.1214 16.58L8.71139 14.16L10.5414 12.34C11.5914 13.03 13.0214 12.91 13.9414 11.98L14.6914 11.23C15.6214 10.31 15.7414 8.88 15.0514 7.82Z" fill="url(#paint0_radial)"/>
</g>
<defs>
<filter id="filter0_d" x="2" y="6" width="25.2314" height="25.2312" filterUnits="userSpaceOnUse" color-interpolation-filters="sRGB">
<feFlood flood-opacity="0" result="BackgroundImageFix"/>
<feColorMatrix in="SourceAlpha" type="matrix" values="0 0 0 0 0 0 0 0 0 0 0 0 0 0 0 0 0 0 127 0" result="hardAlpha"/>
<feOffset dy="4"/>
<feGaussianBlur stdDeviation="2"/>
<feComposite in2="hardAlpha" operator="out"/>
<feColorMatrix type="matrix" values="0 0 0 0 0 0 0 0 0 0 0 0 0 0 0 0 0 0 0.25 0"/>
<feBlend mode="normal" in2="BackgroundImageFix" result="effect1_dropShadow"/>
<feBlend mode="normal" in="SourceGraphic" in2="effect1_dropShadow" result="shape"/>
</filter>
<radialGradient id="paint0_radial" cx="0" cy="0" r="1" gradientUnits="userSpaceOnUse" gradientTransform="translate(14.6157 14.6156) rotate(90) scale(8.6156)">
<stop stop-color="#FF0099"/>
<stop offset="1" stop-color="#D114D5"/>
</radialGradient>
</defs>
</svg>
