<svg width="10" height="10" fill="none" xmlns="http://www.w3.org/2000/svg"><path d="M9.246 3.838l-3.18-1.842L2.908.176a1.26 1.26 0 00-1.733.46c-.065.088-.087.197-.131.307-.022.066-.022.153-.044.241v7.544c0 .351.154.68.373.9.241.24.548.372.899.372.197 0 .614-.175.724-.241L6.11 7.96h.022l.022-.022 3.223-1.864c.307-.176.505-.461.592-.79.022-.066.022-.153.022-.241 0-.724-.745-1.206-.745-1.206zm-.439 1.294l-3.18 1.842c-.022 0-.044.022-.044.022L2.47 8.794a.419.419 0 01-.175.066c-.044 0-.088-.022-.132-.044a.235.235 0 01-.044-.132V1.206s0-.022.022-.022c0 0 .022-.022.022-.044.022-.022.066-.044.088-.065h.11c.022.021.044.021.065.043L5.54 2.917a.068.068 0 00.044.022h.022l3.18 1.842c.044.022.132.087.132.153a.252.252 0 01-.11.198z" fill="#fff"/></svg>