<svg width="124" height="124" fill="none" xmlns="http://www.w3.org/2000/svg"><circle cx="62" cy="62" r="58" stroke="#4D94FF" stroke-width="8"/><path d="M62 4a58 58 0 0158 58" stroke="#F3F3F3" stroke-width="8"/><circle cx="62" cy="62" r="48" fill="#fff"/><path d="M52.64 69h-8.28v-1.494l3.955-3.946c1.09-1.09 1.82-1.952 2.189-2.584.369-.64.554-1.298.554-1.978 0-.773-.217-1.365-.65-1.775-.434-.416-1.061-.624-1.882-.624-1.213 0-2.37.515-3.471 1.547v-1.75c1.072-.826 2.32-1.239 3.744-1.239 1.224 0 2.191.331 2.9.993.71.663 1.064 1.553 1.064 2.672 0 .844-.229 1.673-.686 2.488-.451.808-1.31 1.84-2.575 3.093l-3.103 3.032v.036h6.24V69zm2.909-2.092c.914.598 1.866.897 2.856.897.938 0 1.694-.261 2.268-.783.574-.527.861-1.224.861-2.091 0-.873-.293-1.55-.879-2.03-.58-.481-1.424-.721-2.531-.721-.533 0-1.251.04-2.153.123v-6.917h6.697v1.52H57.57v3.85c.51-.03.894-.044 1.152-.044 1.435 0 2.554.363 3.357 1.09.803.726 1.204 1.728 1.204 3.006 0 1.318-.43 2.384-1.292 3.199-.861.814-2.05 1.221-3.568 1.221-1.272 0-2.23-.187-2.874-.562v-1.758zm9.773-8.086c0-1.113.296-1.998.888-2.654.598-.656 1.4-.984 2.408-.984.967 0 1.72.301 2.259.905.545.603.817 1.444.817 2.522 0 1.073-.299 1.943-.896 2.61-.598.669-1.392 1.003-2.382 1.003-.938 0-1.688-.31-2.25-.932-.563-.621-.844-1.444-.844-2.47zm1.354-.088c0 .756.164 1.34.492 1.75.328.41.776.615 1.345.615.586 0 1.037-.211 1.353-.633.323-.428.484-1.029.484-1.802 0-.756-.159-1.339-.475-1.749-.31-.416-.75-.624-1.318-.624-.58 0-1.04.217-1.38.65-.334.428-.501 1.026-.501 1.793zm10.951-3.348l-8.745 13.702h-1.468l8.745-13.702h1.468zM73.479 65.81c0-1.114.295-2.001.887-2.663.598-.669 1.398-1.002 2.4-1.002.96 0 1.713.304 2.258.914.545.603.818 1.456.818 2.557 0 1.067-.302 1.934-.906 2.602-.603.662-1.391.993-2.364.993-.943 0-1.696-.314-2.258-.94-.557-.633-.835-1.454-.835-2.461zm1.344-.08c0 .739.164 1.316.492 1.732.329.41.777.615 1.345.615.586 0 1.037-.214 1.354-.641.322-.428.483-1.026.483-1.793 0-.762-.161-1.345-.483-1.75-.317-.404-.753-.606-1.31-.606-.598 0-1.06.217-1.389.65-.328.428-.492 1.026-.492 1.794z" fill="#4D94FF"/></svg>