<svg width="64" height="62" fill="none" xmlns="http://www.w3.org/2000/svg"><path d="M32.15 33.53l-6.224 9.619-6.513-1.395-13.18-7.368c-.834-.441-1.281-1.345-1.286-2.316a2.405 2.405 0 011.535-2.1l13.903-5.976 8.462-2.302 3.304 11.839z" fill="#FFCF40"/><path d="M55.023 21.313l-7.73 12.97-5.809 4.421-9.333-5.174-3.304-11.838 8.724-2.304L52.6 17.613a2.405 2.405 0 012.379 1.05c.482.844.547 1.85.044 2.65z" fill="#FFAF40"/><path d="M53.59 48.049c.435.856.296 1.865-.327 2.595-.457.682-1.483 1.106-2.431.856l-14.755-3.312-3.927-14.656 15.143.752L53.59 48.05z" fill="#FFCF40"/><path d="M32.15 33.532l3.927 14.656-11.121 10.245c-.697.647-1.664.856-2.534.475-.904-.321-1.53-1.126-1.581-2.084l-1.429-15.07 12.738-8.222zM12.314 20.648l-5.457-4.42a2.47 2.47 0 113.108-3.84l5.457 4.419a2.47 2.47 0 01.366 3.474 2.468 2.468 0 01-3.474.367z" fill="#FFEA80"/><path d="M40.65 13.742a2.475 2.475 0 01-1.362-3.218l2.749-6.768a2.462 2.462 0 013.218-1.362 2.475 2.475 0 011.362 3.218l-2.749 6.768a2.468 2.468 0 01-3.218 1.361z" fill="#FFCF40"/><path d="M37.572 19.388l-5.42 14.143-11.766-9.538 2.94-14.807c.376-1.84 3.05-2.557 4.296-1.152l9.95 11.354z" fill="#FFEA80"/><path d="M37.57 19.389L27.62 8.035c-.622-.703-1.602-.875-2.474-.641L32.15 33.53l5.42-14.142z" fill="#FFCF40"/></svg>