<svg width="24" height="24" fill="none" xmlns="http://www.w3.org/2000/svg"><g clip-path="url(#clip0)"><path d="M22.606 10.028h0a.46.46 0 00.119-.483.461.461 0 00-.38-.32l.26.803zm0 0L18.4 14.127h0a2.01 2.01 0 00-.578 1.78s0 0 0 0l.992 5.786v.002a.435.435 0 01-.098.376l-.001.001a.476.476 0 01-.365.175.454.454 0 01-.218-.057h0l-5.198-2.733-.004-.002a2.028 2.028 0 00-1.866.002h-.001L5.867 22.19a.49.49 0 01-.584-.117v-.002a.436.436 0 01-.1-.376v-.002l.993-5.786s0 0 0 0a2.01 2.01 0 00-.579-1.78h0l-4.205-4.098h0a.46.46 0 01-.119-.483.46.46 0 01.38-.321h.001l5.811-.844h0a2.01 2.01 0 001.514-1.1s0 0 0 0 0 0 0 0l2.598-5.266h0A.46.46 0 0112 1.753a.46.46 0 01.423.262h0L15.02 7.28s0 0 0 0 0 0 0 0a2.01 2.01 0 001.513 1.1h0l5.81.844.263.804z" stroke="#fff" stroke-width="2.5"/></g><defs><clipPath id="clip0"><path fill="#fff" d="M0 0h24v24H0z"/></clipPath></defs></svg>