<svg width="28" height="28" fill="none" xmlns="http://www.w3.org/2000/svg"><path d="M15.202.024C16.74 0 18.269.014 19.796 0c.093 1.786.74 3.605 2.056 4.868 1.314 1.294 3.173 1.886 4.981 2.087v4.698c-1.695-.055-3.397-.405-4.935-1.13-.67-.3-1.294-.688-1.904-1.085-.009 3.41.014 6.814-.023 10.21-.091 1.63-.633 3.254-1.588 4.598-1.537 2.237-4.205 3.696-6.945 3.742-1.68.095-3.36-.36-4.791-1.198-2.374-1.39-4.044-3.934-4.287-6.664a19.376 19.376 0 01-.014-1.736 8.727 8.727 0 013.034-5.789c1.946-1.682 4.672-2.484 7.224-2.01.024 1.729-.046 3.455-.046 5.184-1.166-.375-2.528-.27-3.547.433a4.046 4.046 0 00-1.603 2.041c-.243.592-.174 1.249-.16 1.877.28 1.915 2.134 3.524 4.113 3.35 1.313-.014 2.57-.77 3.254-1.877.221-.388.469-.784.482-1.24.116-2.087.07-4.165.084-6.252.01-4.704-.014-9.394.022-14.082l-.001-.001z" fill="url(#paint0_linear)"/><defs><linearGradient id="paint0_linear" x1="14.583" y1="0" x2="14.583" y2="28" gradientUnits="userSpaceOnUse"><stop stop-color="#FFE600"/><stop offset="1" stop-color="#FF7A00"/></linearGradient></defs></svg>