<svg width="28" height="28" fill="none" xmlns="http://www.w3.org/2000/svg"><path fill="#1D9FE9" d="M8 2.412l.804-.574 2.38 3.102-.804.574zm6.375-.575l.805.573-2.375 3.106L12 4.943z"/><path d="M9.5 1.965c0 .533-.448.965-1 .965s-1-.432-1-.965c0-.533.448-.965 1-.965s1 .432 1 .965zm6.274 0c0 .533-.447.965-1 .965-.552 0-1-.432-1-.965 0-.533.448-.965 1-.965.553 0 1 .432 1 .965z" fill="#5EC4FF"/><path d="M23.334 5.521S7 4.395 4.667 4.395c-2.333 0-3.5 1.126-3.5 3.378 0 2.252 1.167 13.512 1.167 13.512 0 1.238 1.05 2.252 2.333 2.252h4.667v1.126c0 .619.525 1.126 1.166 1.126h7c.642 0 1.167-.507 1.167-1.126v-1.126h4.667c1.283 0 2.321-1.014 2.321-2.252l.012-13.512c0-1.239-1.05-2.252-2.333-2.252zm0 15.764H4.667V7.773h18.667v13.512z" fill="url(#paint0_linear)"/><rect x="3.5" y="6.647" width="21" height="15.764" rx="1" fill="url(#paint1_linear)"/><path d="M11.084 11.523v6.012c0 .89 1.027 1.43 1.797.946l4.841-3.006c.164-.102.299-.242.392-.408a1.095 1.095 0 000-1.076 1.143 1.143 0 00-.392-.408l-4.841-3.006c-.77-.484-1.797.056-1.797.946z" fill="#fff"/><defs><linearGradient id="paint0_linear" x1="14" y1="5.521" x2="14" y2="25.789" gradientUnits="userSpaceOnUse"><stop stop-color="#1D9FE9"/><stop offset="1" stop-color="#175EC9"/></linearGradient><linearGradient id="paint1_linear" x1="9.917" y1="10.025" x2="24.587" y2="24.056" gradientUnits="userSpaceOnUse"><stop stop-color="#FFD600"/><stop offset="1" stop-color="#F35F0B"/></linearGradient></defs></svg>