<svg width="281" height="120" fill="none" xmlns="http://www.w3.org/2000/svg"><path d="M208.76 37l-.284 6.914 3.703 5.846-7.014-.257-5.746 3.676.284-6.914L196 40.419l6.914.284L208.76 37z" fill="#FFEA3E"/><path opacity=".3" d="M31.76 80l-.284 6.914 3.703 5.846-7.014-.257-5.746 3.676.284-6.914L19 83.419l6.914.284L31.76 80z" fill="#FFEA3E"/><path opacity=".6" d="M280.245 86.954l-2.116 3.34.162 3.951-3.397-2.131-3.894.177 2.116-3.34-.162-3.951 3.34 2.116 3.951-.162z" fill="#FFEA3E"/><circle cx="250.831" cy="116.831" r="2.831" fill="#FFEB3E"/><circle cx="106.887" cy="44.887" r="1.887" fill="#F3AB08"/><circle cx="2.887" cy="106.39" r="1.887" fill="#F3AB08"/><path d="M38.212 41.026l-9.35 7.402-5.702-9.794.265-2.2c5.271 3.741 12.078 5.546 14.787 4.592z" fill="url(#paint0_linear)"/><path d="M27.85 35.18a3.97 3.97 0 01-1.467 5.45 4.04 4.04 0 01-5.492-1.465 3.97 3.97 0 011.467-5.45 4.04 4.04 0 015.492 1.465z" fill="url(#paint1_linear)"/><path d="M48.07 35.38l11.139-4.329-5.702-9.795-2.054-.872c.632 6.398-1.196 13.147-3.383 14.997z" fill="url(#paint2_linear)"/><path d="M48.146 23.558a4.04 4.04 0 005.492 1.465 3.97 3.97 0 001.467-5.45 4.04 4.04 0 00-5.492-1.464 3.97 3.97 0 00-1.467 5.45z" fill="url(#paint3_linear)"/><path d="M12.486 47.305l5.655 1.696c11.547 3.464 21.256-9 15.088-19.203a.219.219 0 01.075-.303l6.185-3.542a.223.223 0 01.302.087c5.826 10.4 21.563 8.292 24.312-3.358l1.346-5.705 3.855.866 3.574 22.28-44.712 25.603-16.85-14.677 1.17-3.744z" fill="url(#paint4_linear)"/><path d="M40.753 44.947l7.576 2.832 1.315-7.923-7.464-2.64-1.427 7.731z" fill="url(#paint5_diamond)"/><ellipse rx="6.237" ry="6.222" transform="matrix(.8678 -.49692 .50311 .86422 34.77 24.046)" fill="url(#paint6_radial)"/><ellipse rx="4.009" ry="4" transform="matrix(.8678 -.49692 .50311 .86422 12.017 47.83)" fill="url(#paint7_radial)"/><ellipse rx="4.009" ry="4" transform="matrix(.8678 -.49692 .50311 .86422 66.914 16.395)" fill="url(#paint8_radial)"/><path d="M72.167 40.523l.001.002v-.002zm-.34-.117c.243.044.324.106.343.124.006.025.02.125-.064.357-.11.307-.35.724-.758 1.248-.809 1.041-2.151 2.351-3.953 3.844-3.593 2.978-8.888 6.585-15.034 10.104-6.146 3.52-11.943 6.264-16.34 7.862-2.204.8-4.02 1.299-5.333 1.473-.661.088-1.145.086-1.47.027-.243-.044-.324-.106-.342-.124-.007-.025-.02-.125.063-.357.11-.308.35-.724.758-1.248.809-1.042 2.151-2.352 3.953-3.845 3.593-2.977 8.889-6.584 15.034-10.103 6.146-3.52 11.943-6.265 16.34-7.862 2.204-.801 4.02-1.3 5.333-1.474.661-.087 1.145-.086 1.47-.026zM28.87 65.316l.001.001-.001-.001zm.007.011v-.001.001zm43.295-24.794l.001.002-.001-.002z" fill="#79264F" stroke="url(#paint9_linear)" stroke-width="1.632"/><defs><linearGradient id="paint0_linear" x1="38.868" y1="35.133" x2="47.609" y2="48.256" gradientUnits="userSpaceOnUse"><stop stop-color="#FFB212"/><stop offset="1" stop-color="#FF8C14"/></linearGradient><linearGradient id="paint1_linear" x1="38.868" y1="35.133" x2="47.609" y2="48.256" gradientUnits="userSpaceOnUse"><stop stop-color="#FFB212"/><stop offset="1" stop-color="#FF8C14"/></linearGradient><linearGradient id="paint2_linear" x1="38.868" y1="35.133" x2="47.609" y2="48.256" gradientUnits="userSpaceOnUse"><stop stop-color="#FFB212"/><stop offset="1" stop-color="#FF8C14"/></linearGradient><linearGradient id="paint3_linear" x1="38.868" y1="35.133" x2="47.609" y2="48.256" gradientUnits="userSpaceOnUse"><stop stop-color="#FFB212"/><stop offset="1" stop-color="#FF8C14"/></linearGradient><linearGradient id="paint4_linear" x1="41.422" y1="43.971" x2="79.89" y2="35.921" gradientUnits="userSpaceOnUse"><stop stop-color="#FFE360"/><stop offset="1" stop-color="#F7AB0D"/></linearGradient><linearGradient id="paint9_linear" x1="45.539" y1="45.478" x2="55.373" y2="56.752" gradientUnits="userSpaceOnUse"><stop stop-color="#C359BC"/><stop offset="1" stop-color="#BD4907"/></linearGradient><radialGradient id="paint5_diamond" cx="0" cy="0" r="1" gradientUnits="userSpaceOnUse" gradientTransform="rotate(58.904 -15.004 61.32) scale(14.3367 12.0157)"><stop stop-color="#FFCBBD"/><stop offset=".226" stop-color="#F56C48"/><stop offset="1" stop-color="#5B1520"/></radialGradient><radialGradient id="paint6_radial" cx="0" cy="0" r="1" gradientUnits="userSpaceOnUse" gradientTransform="matrix(2.22742 7.33337 -7.3476 2.23174 4.01 5.111)"><stop stop-color="#FFEA7C"/><stop offset="1" stop-color="#FFB212"/></radialGradient><radialGradient id="paint7_radial" cx="0" cy="0" r="1" gradientUnits="userSpaceOnUse" gradientTransform="rotate(73.105 -.927 3.381) scale(4.92697 4.93654)"><stop stop-color="#FFEA7C"/><stop offset="1" stop-color="#FFB212"/></radialGradient><radialGradient id="paint8_radial" cx="0" cy="0" r="1" gradientUnits="userSpaceOnUse" gradientTransform="rotate(73.105 -.927 3.381) scale(4.92697 4.93654)"><stop stop-color="#FFEA7C"/><stop offset="1" stop-color="#FFB212"/></radialGradient></defs></svg>