<svg width="24" height="24" fill="none" xmlns="http://www.w3.org/2000/svg"><path d="M19.345 19.475h0a.627.627 0 01-.653.13l-1.352-.51a6.254 6.254 0 01-1.938.305c-2.604 0-4.813-1.58-5.488-3.739a7.272 7.272 0 01-2.286-.22l-1.577.965 13.294 3.069zm0 0a.627.627 0 00.167-.644l-.247-.786c1.17-.966 1.835-2.316 1.835-3.765 0-2.652-2.25-4.825-5.105-5.092m3.35 10.287l-3.35-10.287m-8.277 4.975h0a5.996 5.996 0 001.988.252 4.403 4.403 0 01-.002-.135c0-2.628 2.209-4.786 5.027-5.084-.333-2.267-2.558-4.041-5.266-4.041-2.941 0-5.31 2.09-5.31 4.632 0 1.518.855 2.946 2.299 3.816 0 0 0 0 0 0l-.052.085 1.316.475zm0 0a.628.628 0 00-.51.065h0l-.53.324.063-.268.977-.121zm8.277-4.975c-.152-1.361-.82-2.618-1.916-3.59C12.842 4.503 11.202 3.9 9.465 3.9c-1.738 0-3.377.602-4.615 1.698-1.256 1.113-1.95 2.6-1.95 4.19 0 1.823.936 3.526 2.519 4.637l-.306 1.302a.627.627 0 00.243.652s0 0 0 0l.058-.082m10.581-7.109l-9.944 7.218-.053-.086a.526.526 0 01-.584-.023m0 0a.527.527 0 01-.204-.547l.204.547zm12.762 1l.057.083-.057-.082a.627.627 0 00-.247.679l-.358-.135h0a.628.628 0 00-.438-.002h0a4.985 4.985 0 01-1.731.305c-2.463 0-4.444-1.746-4.444-3.865s1.98-3.865 4.444-3.865c2.463 0 4.443 1.746 4.443 3.865 0 1.176-.605 2.276-1.67 3.018z" fill="#F64953" stroke="#F64953" stroke-width=".2"/><path d="M6.908 7.813h0a.631.631 0 000 .887.63.63 0 00.887 0 .63.63 0 000-.887h0a.632.632 0 00-.887 0h0zm5.405.887a.63.63 0 01-.887 0 .63.63 0 010-.887l.07.07-.07-.07a.63.63 0 01.887 0V8.7zm0 0a.63.63 0 000-.887V8.7zm.681 3.795h0a.631.631 0 000 .887.63.63 0 00.887 0 .63.63 0 000-.887h0a.632.632 0 00-.887 0zm4.542 0a.63.63 0 00-.887 0 .631.631 0 000 .887.63.63 0 00.887 0 .63.63 0 000-.887zm0 0s0 0 0 0l-.07.07.07-.07s0 0 0 0z" fill="#F64953" stroke="#F64953" stroke-width=".2"/></svg>