<svg width="183" height="40" fill="none" xmlns="http://www.w3.org/2000/svg"><path d="M60.337 38.795l.819.82.775-.786-.808-.81c.63-.808.907-1.739.852-2.78a4.015 4.015 0 00-1.206-2.671c-.808-.81-1.782-1.22-2.933-1.22-1.14-.01-2.125.4-2.933 1.209-.808.809-1.217 1.784-1.217 2.936-.011 1.142.398 2.128 1.206 2.937.741.742 1.627 1.152 2.667 1.208a3.989 3.989 0 002.778-.843zm-.742-2.316l-.785.787.741.743a2.936 2.936 0 01-1.98.52 2.909 2.909 0 01-1.893-.875 2.98 2.98 0 01-.886-2.16c0-.843.3-1.563.886-2.15a2.94 2.94 0 012.158-.898c.84.011 1.56.31 2.147.898.52.52.819 1.152.885 1.894a2.981 2.981 0 01-.531 1.984l-.742-.743zm11.826.676l1.97 2.494h1.428l-2.048-2.582a2.849 2.849 0 001.56-1.02c.421-.532.632-1.13.632-1.806 0-.809-.288-1.485-.852-2.05a2.805 2.805 0 00-2.059-.853h-3.32v8.31h1.107v-2.493h1.582zm1.904-4.188c.354.354.531.775.531 1.274s-.177.92-.531 1.274a1.712 1.712 0 01-1.273.532H69.84v-3.601h2.213c.498 0 .93.177 1.273.52zm10.515 6.77c.862-.055 1.493-.454 1.903-1.197.31-.587.376-1.185.188-1.795a2.208 2.208 0 00-1.151-1.385l-1.284-.72a1.166 1.166 0 01-.597-.731 1.2 1.2 0 01.088-.953c.288-.388.63-.599 1.03-.61.387-.01.74.144 1.062.466l.907-.654c-.509-.676-1.195-.986-2.07-.931-.874.067-1.516.465-1.914 1.208-.31.587-.376 1.185-.188 1.795.188.62.564 1.086 1.15 1.385l1.285.72c.299.155.498.4.597.72.1.333.078.654-.088.965-.288.387-.631.598-1.03.61-.387.01-.741-.145-1.062-.466l-.907.654c.52.675 1.206.986 2.08.92zm14.322-3.435a2.812 2.812 0 00.852-2.06c0-.81-.287-1.486-.852-2.05a2.805 2.805 0 00-2.058-.854h-3.32v8.31h1.106v-2.493h2.214c.808 0 1.494-.288 2.058-.853zm-.786-3.335c.355.354.532.775.532 1.274s-.177.92-.532 1.274a1.712 1.712 0 01-1.272.532H93.89v-3.601h2.214c.498 0 .93.177 1.272.52zm8.282-1.629v8.31h1.107v-8.31h-1.107zm8.858 4.155c0-.842.299-1.562.897-2.15a2.896 2.896 0 012.147-.897c.841 0 1.56.3 2.147.898l.785-.787c-.808-.81-1.781-1.22-2.932-1.22-1.14 0-2.125.41-2.933 1.22-.808.809-1.217 1.784-1.217 2.936 0 1.142.409 2.128 1.217 2.937.808.809 1.793 1.219 2.933 1.219 1.151 0 2.124-.41 2.932-1.22l-.785-.786a2.899 2.899 0 01-2.147.898c-.842 0-1.561-.3-2.147-.898a2.904 2.904 0 01-.897-2.15zm16.404 4.156v-2.494l2.578-5.817h-1.206l-1.926 4.421-1.903-4.421h-1.207l2.557 5.817v2.494h1.107zm8.037-1.142a.648.648 0 00-.199.477c0 .188.067.343.199.465.122.133.277.2.465.2a.644.644 0 00.476-.2.603.603 0 00.199-.465.627.627 0 00-.199-.477.627.627 0 00-.476-.2.603.603 0 00-.465.2zm7.957-3.014c0-.842.299-1.562.896-2.15a2.899 2.899 0 012.147-.897c.841 0 1.561.3 2.147.898l.786-.787c-.808-.81-1.782-1.22-2.933-1.22-1.14 0-2.125.41-2.932 1.22-.808.809-1.218 1.784-1.218 2.936 0 1.142.41 2.128 1.218 2.937.807.809 1.792 1.219 2.932 1.219 1.151 0 2.125-.41 2.933-1.22l-.786-.786a2.897 2.897 0 01-2.147.898 2.9 2.9 0 01-2.147-.898 2.907 2.907 0 01-.896-2.15zm13.957-2.936c-.807.809-1.217 1.795-1.217 2.936 0 1.142.41 2.128 1.217 2.937.808.809 1.793 1.219 2.933 1.219s2.125-.41 2.933-1.22a4.019 4.019 0 001.217-2.936 4.019 4.019 0 00-1.217-2.936c-.808-.81-1.793-1.22-2.933-1.22s-2.125.41-2.933 1.22zm.786 5.086a2.907 2.907 0 01-.896-2.15c0-.842.299-1.562.896-2.16a2.931 2.931 0 012.147-.887c.841 0 1.561.3 2.158.886a2.98 2.98 0 01.886 2.161c0 .842-.299 1.563-.886 2.15a2.939 2.939 0 01-2.158.898 2.9 2.9 0 01-2.147-.898zm14.15-4.732l3.044 3.048 3.043-3.048v6.738h1.107v-8.311h-1.107l-3.043 3.047-3.044-3.047h-1.106v8.31h1.106v-6.737zM57.596 4.108c.558.676 1.187 1.533 1.887 2.572L57.49 7.75h2.947v2.163a25.003 25.003 0 01-1.868 3.399v.838l1.07-.945c.752.675 1.576 1.48 2.47 2.415l-1.925 1.578a48.263 48.263 0 00-1.615-2.006v8.161h-2.646v-6.662a27.35 27.35 0 01-1.75 1.715 54.942 54.942 0 00-.779-3.175c1.725-1.507 3.048-3.143 3.969-4.909h-3.696V7.751h3.297a38.293 38.293 0 00-1.663-2.493l2.295-1.15zm2.452 16.07h5.174v-7.967h-3.89V9.68h3.89V4.401h2.802v5.278h4.007v2.532h-4.008v7.967h4.708v2.532H60.048v-2.532zM75.54 6.602h7.85c-.26-.617-.49-1.15-.69-1.598l2.878-.876c.311.617.713 1.441 1.206 2.474h7.529v2.454H75.54V6.602zm.117 6.973c2.153-1.441 4.027-2.935 5.622-4.48l2.101 1.928a71.483 71.483 0 01-5.894 4.811c-.428-.61-1.038-1.363-1.829-2.26zm12.859-4.422c2.14 1.52 4.065 2.941 5.777 4.266l-2.023 2.24a77.345 77.345 0 00-5.544-4.616l1.79-1.89zm-6.342 3.857c.85 1.474 1.793 2.714 2.83 3.72a12.683 12.683 0 002.714-3.759l2.296 1.539c-.817 1.48-1.754 2.782-2.811 3.905 1.886 1.078 4.367 1.796 7.44 2.153a122.828 122.828 0 00-1.614 2.785c-3.093-.422-5.765-1.425-8.015-3.01-2.237 1.552-4.948 2.581-8.132 3.088-.324-.727-.849-1.656-1.575-2.785 2.983-.377 5.48-1.13 7.49-2.26a19.68 19.68 0 01-2.802-3.76l2.179-1.616zm20.317-4.85l1.722 3.535a56.684 56.684 0 001.449-3.633l1.313.604 1.041-.467 1.575 3.418a69.821 69.821 0 001.401-3.632l2.101.896a63.674 63.674 0 01-2.179 5.61l2.043 4.557-2.198 1.091-1.177-2.844a63.72 63.72 0 01-1.975 3.623c-.292-.227-.58-.444-.865-.652l-1.041.516-1.508-3.584a43.52 43.52 0 01-2.344 3.934 23.4 23.4 0 00-1.187-1.032v3.234h-2.606V4.984h17.683v14.96c0 1.007-.192 1.78-.574 2.318-.383.546-.921.864-1.615.955-.687.09-1.974.136-3.861.136a26.193 26.193 0 00-.603-2.727c.92.091 1.854.136 2.801.136.83 0 1.245-.409 1.245-1.227V7.42h-12.47v1.694l1.829-.954zm-1.829 1.344v8.892a43.16 43.16 0 002.286-4.023 158.691 158.691 0 00-2.286-4.87zm6.294 1.685a60.375 60.375 0 01-1.421 3.311l1.352 2.912c.506-.954.999-1.948 1.479-2.98l-1.41-3.243zm15.093-.829c.545-.025.934-.038 1.168-.038a43.105 43.105 0 001.556-3.02l2.295 1.053a458.966 458.966 0 01-4.046 6.895c.973-.13 1.984-.273 3.035-.428a28.07 28.07 0 00-.156 2.415c-2.671.35-4.52.65-5.544.896l-.759-2.182c.649-.662 1.427-1.785 2.335-3.37-.74.052-1.427.117-2.062.195l-.74-2.2c.921-1.118 2.036-3.24 3.346-6.37l2.413.935a195.91 195.91 0 01-2.841 5.22zm5.136 13.13v-7.87h10.038v7.87h-2.529v-.897h-4.98v.896h-2.529zm-7.587-1.13l-.447-2.727c1.621-.17 4.079-.507 7.373-1.013a31.055 31.055 0 00-.098 2.688c-2.892.402-5.168.753-6.828 1.052zm15.096-4.305h-4.98v2.104h4.98v-2.104zm-8.073-8.493c1.517-1.714 2.762-3.5 3.735-5.356l2.626.428a27.631 27.631 0 01-.914 1.52h5.583V8.49c-.739 1.363-1.757 2.571-3.054 3.623 1.18.428 2.49.753 3.929.974a24.108 24.108 0 00-.583 2.532c-2.309-.506-4.222-1.162-5.739-1.967-1.608.779-3.502 1.448-5.68 2.006-.363-1-.688-1.773-.973-2.318 1.712-.364 3.184-.785 4.416-1.266a11.624 11.624 0 01-1.265-1.364l-.836.838a22.836 22.836 0 00-1.245-1.987zm4.007-1.13c-.116.156-.246.325-.389.507a8.66 8.66 0 001.965 1.987c1.063-.701 1.868-1.533 2.412-2.493h-3.988zm13.392 1.734c.409-.032.927-.068 1.556-.107.396-.701.798-1.438 1.206-2.21l2.315 1.187c-1.504 2.585-2.859 4.695-4.065 6.33.544-.064 1.841-.252 3.89-.564a38.396 38.396 0 00-.214 2.396c-3.32.402-5.453.74-6.4 1.013l-.953-2.338c.674-.35 1.634-1.542 2.879-3.574-1.115.084-1.932.185-2.451.302l-.778-2.279c.648-.39 1.848-2.467 3.599-6.233l2.47.954c-1.232 2.169-2.25 3.877-3.054 5.123zm4.28 1.052c1.102-1.753 2.12-4.116 3.054-7.09l2.782.701a60.944 60.944 0 01-.856 2.357h6.283l-.136 9.165c-.071 2.486-.165 3.973-.282 4.46-.11.48-.327.896-.652 1.247-.324.35-.729.587-1.216.71-.479.13-2.097.209-4.853.235a19.533 19.533 0 00-.7-2.786c1.497.078 2.61.117 3.336.117.519 0 .885-.075 1.099-.224a1.11 1.11 0 00.438-.653c.077-.279.149-1.431.214-3.457.071-2.032.12-4.12.146-6.262H152.2a31.884 31.884 0 01-1.41 2.746c-.61-.415-1.44-.838-2.49-1.266zm4.027.35a83.534 83.534 0 013.268 4.636l-2.393 1.5a48.037 48.037 0 00-3.035-4.675l2.16-1.46zm-11.244 8.22c2.113-.246 4.889-.623 8.326-1.13-.078 1.092-.111 1.988-.098 2.689l-7.781 1.168-.447-2.727zm22.651-4.986h17.858v2.454h-4.844a169.192 169.192 0 013.988 5.045l-2.373 1.442-.895-1.305c-2.464.09-5.551.246-9.26.467-.557.039-1.238.136-2.042.292l-1.167-2.357c1.193-.857 2.373-2.051 3.54-3.584h-4.805v-2.454zm11.05-10.557l-.545.662c1.673 2.454 4.37 4.545 8.092 6.272a39.48 39.48 0 00-1.75 2.298 30.191 30.191 0 01-2.724-1.636v1.325H167.43v-1.442a50.135 50.135 0 01-2.723 1.714 57.907 57.907 0 00-1.751-2.298c4.254-2.246 7.081-4.545 8.482-6.895h3.346zm-2.14 2.805c-.921 1.207-2.218 2.44-3.891 3.7h7.626c-1.466-1.142-2.711-2.376-3.735-3.7zm1.712 11.22l1.673-1.014h-4.105c-.674.857-1.53 1.838-2.568 2.942 1.504 0 3.612-.059 6.322-.176-.415-.558-.856-1.142-1.322-1.753z" fill="#fff"/><circle cx="20" cy="20" r="20" fill="#fff"/><path d="M15.852 30.652l7.809-4.543c-1.063-1.026-1.784-2.125-2.208-3.337-.376-1.073-.46-2.075-.468-2.908v-.292l.003-.222c.005-.22.012-.43.02-.617l.001-.044c.013-.328.023-.59.023-.848v-3.537s0-1.768-3.871-4.243l-1.375-.75C14.067 8.378 12 9.658 12 11.656v16.688c0 2.032 2.132 3.309 3.852 2.308z" fill="url(#paint0_linear)"/><path d="M25.6 19.718v-5.014l4.613 2.4c1.059.494 1.787 1.525 1.787 2.718 0 1.674-1.433 3.03-3.2 3.03-1.767 0-3.2-1.357-3.2-3.03v-.06l.002-.045H25.6z" fill="url(#paint1_linear)"/><defs><linearGradient id="paint0_linear" x1="12" y1="31" x2="34.446" y2="28.131" gradientUnits="userSpaceOnUse"><stop stop-color="#FF4A53"/><stop offset="1" stop-color="#FF894E"/></linearGradient><linearGradient id="paint1_linear" x1="12" y1="31" x2="34.446" y2="28.131" gradientUnits="userSpaceOnUse"><stop stop-color="#FF4A53"/><stop offset="1" stop-color="#FF894E"/></linearGradient></defs></svg>